<svg width="1340pt" height="1340pt" preserveAspectRatio="xMidYMid" version="1.0" viewBox="0 0 1340 1340"><path d="M730.369 75.69c.2.7 1.1 1.2 1.8 1 1.1-.3 1.1-.1.2.9-1 1-1.6.9-3-.4-1.4-1.2-2.2-1.3-3.8-.4-2.4 1.4-6.5 1.6-6.5.4 0-.5-.6-.5-1.3.1s-2.3.9-3.5.5c-1.2-.3-3-.2-3.9.2-1 .5-5 .9-8.8.9-3.9.1-7.6.5-8.2.9-.7.4-2.4.5-3.8.1-1.5-.4-3.2-.1-4.2.7-.9.8-3.9 1.4-6.8 1.4-3.5 0-5.9.6-7.1 1.7-1.1.9-4.3 1.8-7.9 2.1-6.4.6-11.1 1.3-16.1 2.6-1.7.5-4.3.7-5.6.4-1.5-.3-3.1.2-4 1.1-.9.8-2.5 1.4-3.6 1.1-1.3-.2-2.2.3-2.5 1.6-.4 1.6-1.4 1.9-6.4 1.9-3.2 0-6.5.6-7.4 1.3s-3.5 1.2-5.7 1.2c-2.7 0-3.8.3-3.5 1.1.5 1.3-.9 1.9-7.2 3-2.2.4-4.5 1.3-5.3 2-.9.9-2 1.1-3.7.4-1.7-.6-2.7-.5-3.5.5-.7.8-1.6 1.2-2.2.9-.5-.3-2.1.3-3.6 1.3s-3.1 1.9-3.7 1.9c-.5.1-1.3.3-1.7.4-.5.1-1.1.3-1.5.5-.5.1-2.8 1.1-5.3 2.2s-6.4 2.9-8.7 3.9c-2.4 1-4.3 2.1-4.3 2.6 0 .4-1.3.8-3 .8s-3.9.9-5.2 2.3c-1.3 1.2-3.2 2.1-4.3 2s-1.5 0-.8.3c1 .4 1 .8 0 1.9-.7.7-1.5 1.1-1.9.8-1.2-.6-8.8 1.9-8.8 3 0 .5.7.6 1.6.3.8-.3 1.2-.2.9.4s-1.5 1-2.5 1-2.2.5-2.6 1.1c-.3.6-1.5.9-2.5.6-1.1-.3-2.4.2-3.2 1.2-1.4 2.1-4.5 3.5-6.9 3.2-1-.1-1.8.4-1.8 1.2 0 1.4-2 2.7-4.2 2.7-.7 0-.7-.5.1-1.3.6-.8.8-1.7.4-2-1.1-1.2-2.3-.8-2.3.8 0 .8-.6 1.5-1.2 1.5-.9 0-.8.3.2 1 1.3.8 1.3 1 0 1.4-.8.3-3.1.7-5 .9s-3.5.8-3.5 1.3c0 1.4-3.1 4.4-4.4 4.4-.6 0-1.1.4-1.1.9 0 .4-1.3.7-3 .5-2.5-.3-3 0-3 1.7 0 2-4.3 4.3-8 4.3-1.7.1-4 2-4 3.4 0 .5-.6 1.5-1.4 2.1-1.1.9-1.5.9-1.8 0-.3-.8-1.9.1-4.4 2.3-2.1 1.9-4.7 3.6-5.6 3.7-1 .1-2.7.2-3.7.3-1.1.1-1.9.5-1.8.8.7 3.1-7.1 8.6-11.5 8.2-1.1-.1-1.8.5-1.8 1.4 0 1.3-.7 1.5-3 1-2.2-.4-3-.2-3 .9 0 .8-.7 1.5-1.5 1.5s-1.5.5-1.5 1.1-.9.8-2.1.4c-1.4-.5-2-.3-1.8.7.4 2.9-.1 4-1.7 3.4-.8-.3-1.2-.2-.9.3.8 1.5-1.5 2.5-2.8 1.2-1.6-1.6-2.4-1.4-3 .9-.3 1.2-1.4 2-2.5 2s-3 1.2-4.1 2.6c-1.8 2.3-2.1 2.4-2.2.8 0-1.1-.3-1.3-.6-.7-.2.7-1.3 1.3-2.3 1.3s-4 2.1-6.6 4.6c-2.7 2.5-5.9 5-7.2 5.5-1.7.6-2.2 1.6-2 3.1.2 1.8-.2 2.3-1.9 2.3-3.2.1-7 4.7-6.4 7.9.1.5-.8.6-1.9.3-1.7-.4-2-.2-1.6 1 .4 1 .2 1.3-.8 1-1.7-.7-4.1 1.7-3.2 3.1.3.6-.1 1.5-.9 2.2-1.3 1.1-1.5 2.5-1.6 15.5 0 1.6.1 5.8.2 9.1.1 4-.4 7.2-1.4 9-.9 1.6-1.8 4.6-2.2 6.6-.3 2.3-1.2 3.9-2.3 4.2-1 .3-1.9 1.4-2 2.3-2.2 18.1-3.4 23.9-4.7 23.4-.6-.3-1.3.8-1.6 2.5-.4 1.6-.7 2.4-.8 1.7 0-.7-.8-1-1.6-.7-.9.4-1.3 1.8-1.1 4.2.3 4-1.5 6.7-4.9 7.4-1.2.2-2 1.2-2.1 2.4-.2 3.4-1.4 4.6-3.9 4-2.4-.6-3.5.8-3.5 4.5 0 1.2-.7 1.9-2 1.9-1.1 0-2 .5-2 1.1 0 .5-.5.7-1 .4s-1-.2-1 .4c0 .5.5 1.3 1.1 1.6.6.4.1 1.9-1.5 4-1.4 1.8-2.7 3.9-2.8 4.6-.2.8-1.3 2.4-2.6 3.6-1.4 1.4-1.8 2.3-1 2.3.9.1.7.5-.4 1.4-1 .7-1.8 1.8-1.8 2.5 0 .6-.4 1.1-1 1.1-.5 0-.9.4-.7.8.3 1.3-6.6 10.1-8 10.2-1.6 0-1.7 2-.1 2 .6 0 .4.8-.6 1.9s-2.5 1.7-3.3 1.4c-1.3-.5-1.3-.3-.3 1.6.9 1.9.9 2.6-.4 4-.9 1-1.6 2.1-1.6 2.5s-1 1.7-2.2 2.8c-1.5 1.3-1.9 2.1-1.1 2.4 1.4.6-.4 5.4-2 5.4-.5 0-.7.9-.4 2s-.1 2.6-.8 3.4c-1 1-1.1 1.6-.2 2.5.8.8.8 1.1-.1 1.1-.7 0-1.2 1.1-1.2 2.5s-.4 3.3-.9 4.3c-.5.9-1.2 2.5-1.5 3.6-.4 1.1-1.2 1.6-2.1 1.2-1.3-.4-1.4.2-.9 3.4.4 2.6.3 4-.4 4-.6 0-.9.7-.5 1.6.4 1-.1 2-1.1 2.6-1.1.6-1.4 1.6-1 3.5.4 1.6.2 2.8-.7 3.4-1.2.7-1.1.9.1.9 1 0 1.1.3.4.8-1.2.7-2.5 33.2-1.4 33.2.3 0 .6 1 .6 2.2.3 3.9 1 6.2 2.1 6.5 1.7.6 4.1-3.6 3.8-6.5-.2-1.5.3-6.1 1.1-10.2s1.7-10 2-13c.4-3 1.1-6.1 1.8-6.9.8-1.2.8-1.3-.1-.7-1.8 1-1.6-.2.2-2 1.3-1.4 1.5-1.4 1.5 0 0 .9.4 1.6.9 1.6s.8-1.1.7-2.5c0-1.4-.7-2.5-1.3-2.5-2.1 0-1.5-4.8.7-6 1.1-.6 2-1.9 2-3 0-1 .4-2.1.9-2.4.4-.3.6-1.7.3-3.1-.2-1.5 0-2.5.7-2.5.6 0 1.1-1.3 1.1-2.9s.6-3.1 1.5-3.5c.8-.3 1.2-1.2.9-2.1-.4-1 0-1.5 1-1.5.9 0 1.6-.7 1.6-1.5s.5-1.5 1-1.5c.6 0 1 .7 1 1.5s-.5 1.5-1.1 1.5c-.7 0-1 1.7-.7 4.5.2 2.5 0 4.5-.3 4.5-1.1 0-1.7 5-.7 5.6.5.4.5 1 0 1.7-.7.9-.9 15.2-.2 15.2.3 0 .8 14.5.9 23.3.1 4.7.5 8.1 1 7.8 1-.6 2.2 7.2 2.2 14.1 0 3.2.4 4.3 1.5 4.3 1.2 0 1.5.9 1.3 4-.2 2.1 0 4.2.3 4.6.4.3.4 1.2.1 2s0 1.4.6 1.4 1.1.7 1.1 1.6c0 .8-.4 1.2-1 .9-.5-.3-1 .3-1 1.4 0 1.2.5 2.1 1.1 2.1.7 0 .9 1.1.6 2.7-.6 3.1.1 5.5 1.4 4.7.5-.3.9.1 1 .8.3 4.3.7 6.1 1.7 6.7.7.4 1.6 4.2 2.2 8.5 1.1 8.7 1.6 10 3.7 9.2.8-.3 1.1-.1.8.4s0 2 .7 3.2c.7 1.3 1.1 2.7 1 3.1-.1.5.2.6.7.3s1.5.1 2.2 1c1 1.3 1 1.7-.2 2.5-1 .6-1 .9-.1.9.6 0 1.2.7 1.2 1.6 0 1.1.5 1.4 1.6 1 1.2-.5 1.4-.1.9 1.5-.5 1.4-.3 1.9.4 1.5 1.2-.7 4.6 2.7 4.6 4.7 0 .7 1 1.1 2.4.9 1.5-.2 2.1 0 1.7.7-.4.6 0 1.1 1 1.1 1.1 0 1.5.6 1.1 2-.3 1.1-.2 2 .3 2 .4 0 1-1.3 1.3-2.8.5-2.5.9-2.8 4.1-2.4 2.6.3 3.6 1 3.9 2.6.2 1.1.3.6.1-1.2-.3-3.7.3-4.1 1.6-1q.9 2.55.9.6c.1-2.3 2.8-3.6 7.7-3.6 3.2-.1 4.7.5 6.5 2.4 2.3 2.4 2.3 2.6.6 3.9-1.6 1.2-1.7 1.4-.2 2.9.9.9 2.1 1.4 2.6 1.1.5-.4.9.1.9 1s.5 1.3 1 1c.6-.3 1-.1 1 .4 0 .6-.4 1.1-1 1.1-.5 0-1 .8-1 1.7 0 1.4.2 1.5.9.4.5-.7 1.1-.9 1.4-.5.7 1.3.1 46.3-.7 47.1-.3.3-.6-.8-.6-2.6 0-3.7-2-4.9-5.6-3.3-1.5.7-2.4.8-2.4.2 0-1.1-4-1.3-6.4-.4-.9.3-1.6 1.4-1.6 2.4 0 1.1-1.2 2.1-3.2 2.8-2.6.8-2.8 1-1 1.1 1.2.1 2.2.7 2.2 1.6 0 2.2 1.7 1.8 2.3-.5.7-2.7 6.7-2.9 6.8-.3 0 1.3.3 1.2 1-.6.6-1.5 1.4-2.1 2.4-1.7 1.1.4 1.5 0 1.3-1.1-.4-2.2 1.8-2.8 2.4-.6.6 2.6-.5 6.6-2.1 7.1-1 .3-1.2-.2-.8-1.8.6-2.1.5-2.2-1.2-.4-1.4 1.5-1.5 2-.4 2.2 1.5.4 1.8 2.2.4 2.2-1.2 0-.5 4 .8 5.3.7.7 1.5.6 2.4-.1 1.9-1.6 2.8-.4 1.4 2-1 1.5-.9 2.2.3 3.1 1.9 1.4 1.5 4.7-.8 6.4-.9.7-1.1 1.3-.5 1.3.7 0 1.9-.8 2.9-1.7 1.5-1.6 1.6-1.5.9 1.5-.5 2.5-.3 3.2.9 3.3 2.9.3 3.4.4 4.2 1.1.4.5-.4.8-1.7.9-1.5 0-1.9.3-.9.6.8.4 2.1 1.4 2.8 2.4.6.9 2.5 2 4.1 2.4q3 .6 2.4 2.1c-.6 1.7.8 1.9 2.5.2.9-.9 1.3-.7 1.8.5.3.9 1.3 1.7 2.1 1.7s1.2.4.8.9c-.3.5-.1 1.2.5 1.6.5.3 1 1.5 1 2.6 0 1 .6 1.9 1.4 1.9s1.8.5 2.2 1.2.3.8-.4.4c-1.7-1-1.5.9.2 2.4.8.6 1.2 1.8.9 2.6s-.1 1.4.5 1.4.8.9.5 1.9c-.3 1.3.2 2.3 1.6 3 1.3.7 2.2 2.2 2.2 3.9.1 2.4.2 2.3.9-.8l.7-3.5.3 3c.3 3 .7 5.9 1.3 9.3 1.3 6.1 4.7 10.2 6 6.9.3-.6.6-.2.6 1 .1 1.6-.3 2.1-1.4 1.7-1.1-.5-1.3-.2-.9 1 .3.9 1 1.6 1.5 1.6.4 0 2.4 1.6 4.4 3.5 2 2 4 3.3 4.7 2.9.7-.5.9.1.5 1.7-.4 1.4-.4 3.5 0 4.7.4 1.8 1 2.1 3 1.6 2.2-.6 2.4-.4 1.8 1.5-.4 1.2-.2 2.1.4 2.1s1.1-1 1.1-2.2c0-2.2 0-2.2 1.7.2.9 1.4 2.1 2.8 2.6 3.1.5.4.6 1.2.3 1.8-.4.6-.2 1.1.3 1.1.6 0 1.1.6 1.1 1.4 0 .9.7 1.2 2 .9 2-.5 4.2 1 5.2 3.9.4.9 1.7 1.8 3 2 1.8.2 2.4 1 2.6 3.5.2 1.8.7 3.3 1.3 3.3 1.6 0 2.4-.5 2.1-1.3-.1-.4.5-.7 1.3-.7s1.5.9 1.5 2c0 1.2.5 1.7 1.4 1.4.8-.3 1.7-.1 2.1.5.3.6 0 1.1-.7 1.1s-.2.7 1 1.6c1.2.8 2 2 1.6 2.5-.3.6.3 1.3 1.5 1.6 1.1.3 2.3 1.4 2.6 2.4.4 1.1 1 1.7 1.5 1.4 1-.6 3.3 2.2 2.7 3.3-.3.4-.1 1.4.5 2.2.8 1.2.9 1.2.4-.2-.7-2.2 1.2-3.5 2-1.3.4.8 1.4 1.4 2.3 1.3.9-.2 1.5.3 1.3.9-.3 1.6 1 1.7 2.5.2.8-.8 1.6-.8 3 .1 1.6 1 1.6 1.1.1.6q-1.8-.45-1.8.9c0 .8.5 1.5 1 1.5.6 0 1 .8 1 1.8 0 2.4 4 4.9 5.1 3.1.6-1.1.9-1 1.4.3.4.9 1.3 1.4 2 1.1 2.3-.8 4 .8 2.1 1.9-1.4.8-1.5 1.3-.5 2.4.8 1 1.5 1.1 2.4.4 1-.8 1.4-.4 1.9 1.5.7 2.8 2.6 3.4 2.6.7.1-1.6.1-1.6 1.1 0 .5 1 .9 2.5.7 3.4s1 2.6 2.5 3.7c2.4 1.9 2.9 2 3.7.7.9-1.3 1-1.3 1.1 0 .1.8.1 2.1 0 2.7-.1.7.3 1.3.9 1.3.5 0 1 .8 1 1.7 0 1.4.2 1.5.9.4s1.1-1 1.9.4c.5 1.1 1.6 1.6 2.5 1.2.9-.3 1.8-.1 2.1.6.3.9.5.9.5 0 .1-.6 1-.9 2.2-.6 1.6.4 1.7.8.7 1.4-1 .7-1 .9 0 .9.7 0 2.4-.7 3.8-1.6 2.1-1.4 2.3-1.4 1.9-.1-.9 2.3 6.3 7.9 8.6 6.6 2.1-1.1 5-1.3 3.3-.1-.9.5-.8 1.1.2 2 1.2 1.1 1.4 1 1.4-.3 0-.9.5-1.3 1-1 .6.4.8 1.1.5 1.6-.8 1.2.2 1.1 2.6-.1 1.3-.7 1.9-.7 1.9 0 0 .5 1.1 1 2.4 1 1.4 0 2.8.5 3.1 1 .4.6 1.1.7 1.7.4.6-.4.8-.2.5.3-.4.6 0 1.4.9 1.7.8.3 1.3 1 1 1.5s.9.4 2.8-.1c2.7-.9 3.8-.7 5.6.5 1.6 1.1 3 1.3 5.3.6 4.1-1.2 4.7-1.1 4.7.2 0 .6-.7.9-1.5.5-.8-.3-1.5-.1-1.5.4 0 .6.9 1 2 1 1.4 0 2-.7 2-2.1s.4-1.8 1.3-1.2c.6.4 1.9.8 2.7.9.8 0 3 .7 4.8 1.5 3.3 1.4 4 3.8 1.3 4.7-.8.3-1.1 0-.7-.7.4-.6.2-1.1-.3-1.1-1.7 0-1.3 1.5.8 3.5 1.9 1.6 2.1 1.6 4.5-.9 2.7-3 3.3-2.6 3.1 2.4-.1 1.9.2 3.7.6 4 .5.3.5 3 0 5.9-.7 4.5-.8 23.5-.1 26.6.1.5.2 1.2.1 1.5-.2.4-1 7.3-1.3 10.7-.2 1.5-3.8 1.8-3.8.3 0-1.8-1.8-1.1-2.5 1-.3 1.1-1.2 2-2 2-.7 0-2.6.7-4.1 1.5-1.6.8-3.7 1.5-4.6 1.5s-1.9.4-2.2.9-1.5.7-2.6.4c-1.4-.4-2-.1-1.8.8.2.8-.7 1.5-1.9 1.7-1.3.2-2.3-.1-2.3-.7s-.7-.8-1.6-.4c-.8.3-1.3 1.2-1 1.9.3.8.1 1.4-.4 1.4-.6 0-1 1-1.1 2.2 0 1.3-.3 1.7-.6 1.1-.3-1-1-1-2.4-.2-1.1.5-1.7 1.4-1.4 1.8.2.5-.4 1.1-1.5 1.4s-2.9 2.1-4.1 4.1c-1.1 2-2.7 3.6-3.5 3.6s-1.4.5-1.4 1c0 .6-.5.9-1.2.8-.6-.2-2.1 1.1-3.3 2.8l-2.1 3.1-3.1-2.7c-1.7-1.5-4.7-3-6.8-3.4s-4.5-1.4-5.3-2.2c-.9-.9-2.4-1.3-3.6-1s-2.8.6-3.6.6c-1 0-1.7 1-1.8 2.7-.3 3.5-.6 3.7-5.6 3.9-5.2.2-8.8 1.3-8.1 2.4s-3.3 2-6.9 1.4c-1.7-.2-2.5-.2-1.8.2 2.2 1.1.1 2.4-3.9 2.4-2.1 0-3.9.4-3.9 1 0 .5-1.4 1-3 1-1.8 0-3.3.6-3.6 1.5-.4.8-1.6 1.5-2.8 1.5s-2.7.5-3.2 1c-.7.7-1.9.8-3.7.1-2.2-.9-2.7-.8-2.7.4 0 .8-.5 1.5-1.1 1.5-.5 0-.7.4-.4 1 .4.6-.8 1-2.8 1-6.2 0-12.7 1.2-12.7 2.4 0 .7-1.6 1.3-3.6 1.4-2 .2-4.3 1-5.1 1.8s-2.3 1.2-3.3.9c-.9-.3-3 .1-4.6 1-1.6.8-3.9 1.5-5.2 1.5s-3.3.5-4.4 1.1c-1.8 1-2 .9-1.5-.5.4-1 .3-1.5-.2-1.1-.5.3-1.1-.1-1.4-.7-.2-.7-.8-1-1.2-.6s-.3 1.3.1 2c1.5 2.3 1.4 4.6-.2 5.2-.8.3-1.7-.1-2-.9-.4-.8-1-1.3-1.5-1-.4.3-.5 1.3-.2 2.2.5 1.2.2 1.2-1.5-.3-1.2-1-2.2-1.9-2.2-2.1 0-.1 1.2-1.4 2.7-2.9 1.7-1.7 2.3-2.9 1.5-3.2-.6-.2-1.4-.2-1.6 0-.3.2-1.1-.6-1.9-1.6-1-1.3-1.6-1.5-2.1-.8-.4.7-.2 1.2.3 1.2.6 0 1 1.1.9 2.4-.1 1.4-.5 2.4-.8 2.4-1.7-.3-3.8 1.6-3.4 3 .4 1.1-.1.9-1.5-.7-1.2-1.3-2.1-1.8-2.1-1.2s-1.1 1.1-2.5 1.1c-1.6 0-2.5.6-2.5 1.5 0 .8.4 1.5.9 1.5 1 0 2.5 5 1.7 5.8-.3.3-2.2.8-4.3 1.1-2 .3-3.8 1.1-4 1.8-.2.6.4 1 1.4.9 1-.2 2.3.4 3 1.3 1.7 2.3 1.6 3.4-.3 2.7-1-.4-2.2.1-3 1.1-1.2 1.7-1.3 1.6-1.4-.5 0-1.3-.4-2-1-1.7s-1 .1-1-.4c0-.6-.4-1.1-1-1.1-.5 0-1 1.1-1 2.5 0 1.8.4 2.3 1.5 1.9.8-.4 1.5-.1 1.5.5s-.6 1.1-1.4 1.1c-.7 0-1.6.9-1.9 2.1-.7 2.6-3.1 2-3.5-.9-.4-2.3-2.2-3.1-2.2-1-.1 2.3-4.4 6.5-7.3 7.2-2 .5-2.7 1.1-2.3 2.2.3.9.2 1.2-.4.9-.6-.4-3.1.4-5.6 1.7l-4.6 2.2.7 5.3c.6 5 .5 5.3-1.9 5.9-1.4.3-2.3 1-2 1.6.3.5 1.1.4 2-.3.8-.6 1.4-1 1.5-.8 0 .2.1 3.2.2 6.6l.2 6.1-3.9.6c-4.7.8-4.1 1.8 1.1 1.8 2.1 0 3.2.3 2.6.5-.7.3-1.3 1.1-1.3 1.9 0 .9.4 1.3.8 1 .4-.2.8 1.1.8 3s-.4 3.4-.9 3.4c-.4 0-.5.5-.1 1.2.5.7.7 3 .5 5.2-.2 3.2 0 3.8 1.3 3.3.9-.4 1.6-.2 1.6.3 0 .6-.5 1-1 1-.6 0-1 1.5-.8 3.4.1 1.9-.4 4.1-1.1 4.9-.8 1-.9 1.7-.1 2.2.5.3 1 1.7 1 3s.5 2.7 1 3c1.4.9 1.2 2.5-.2 2-.9-.4-1.4.9-1.6 4-.2 3.6.1 4.3 1.3 3.9 1-.4 1.5 0 1.5 1.6 0 1.1-.4 1.8-1 1.5-.5-.3-1 .1-1 .9 0 .9-.4 1.6-1 1.6-.5 0-1 .4-1 .9s.8.8 1.7.7c1 0 1.9.7 2.1 1.8.2 1 0 1.6-.6 1.2-.5-.3-1.5.1-2.2.9-.8.9-.8 1.5-.2 1.5s1.2-.6 1.5-1.3c.3-.8.7-.5 1.3.7.5 1.3.3 2.1-.5 2.4-.9.3-.9.7 0 1.9 1 1.1 1 1.6 0 2.3-.8.5-1.1 1.6-.6 3 .4 1.3.3 2-.2 1.7s-.9 1.1-.9 3.1-.3 4.6-.8 5.7c-.5 1.4-.5 1.6.2.6 1.9-2.7 2.3.9 1.2 10.6-1.5 12.5-1.9 16.2-2.4 24.8-.2 3.8-.5 7.4-.5 8-.1.5-.5.4-1-.3-.5-.8-.6.7-.3 3.7.3 3.2 0 5.6-.8 6.5-.6.8-.9 2.4-.5 3.6.4 1.4.2 2-.9 2-.9 0-1.3.6-1 1.4.3.7-.2 1.6-1 1.9-.9.4-1.6 1.4-1.6 2.2 0 .9-.4 1.4-.9 1.1-1.2-.8-7.1 2.6-7.1 4 0 .7-.6 1.4-1.4 1.7-.7.3-1.6 2.2-1.9 4.3-.7 4.5.3 15.5 1.3 14.9.4-.3 1 .4 1.3 1.5.7 2.6 3.3 2.6 4 0 .3-1.3-.1-2.1-1.5-2.6-1.1-.3-1.7-.8-1.4-1.1.2-.3 1.8.2 3.5 1 2.4 1.2 2.9 1.2 2.4.1-.3-.8.1-1.4 1.1-1.4.8 0 3.4-1.8 5.6-4 3.9-3.8 5.8-5.1 4.5-3.1-1 1.6.9 2 2.9.5 1.6-1.1 1.7-1.6.6-2.9s-1-1.4.4-.9c1 .4 1.6.1 1.6-.7 0-1.1.3-1.1 1 .1.5.8 1 1.1 1 .7s.9-.3 2.1.3c2.2 1.2 2.2 1.1.3 17-.3 1.9-.7 7.3-1 12-.5 7.8-.9 12.5-1.3 12.5-.1 0-.2 9.2-.4 20.5l-.2 20.5 5 2.7c2.8 1.5 6.9 3.4 9.3 4.2 3.8 1.3 4.4 1.3 4.9 0 .3-.8-.5-2.3-2-3.5-2.3-1.7-2.5-2.3-1.5-4.4.6-1.3 1.5-2.2 1.9-1.9.5.3.6-.2.3-1-.3-.9-1.1-1.3-1.8-.9-.6.3-.6.1.2-.8 1.6-1.8 1.5-2.9-.3-2.9-.8 0-1.5-.3-1.6-.8-.7-5.2-.7-17.2 0-17.2.5 0 1.2.6 1.5 1.2.3.7.4.4.3-.7-.2-1.1-.9-1.9-1.5-1.7-1.4.3-1.6-4.5-.2-5 .6-.2 1.1-5.7 1.3-13 .2-10.3.6-13 2-14.6 1.8-1.9 2.3-5.2.9-5.2-1.3 0-1-6.3.4-8.4.7-1 1-2.5.7-3.3s0-1.9.8-2.4c1.9-1.2 3.2-1.1 2.4.1-.4.6.6 1 2.2 1 4.4 0 7.3 1.1 7.3 2.7 0 1.3.3 1.3 1.5.3s1.8-1 3 0 1.5 1 1.5-.4c0-.9.5-1.6 1-1.6 1.6 0 .2 23.8-1.6 27.6-1.1 2.5-1.5 8.9-1.6 28-.2 13.7-.7 25.2-1.2 25.5-.5.4-.4 2 .2 3.8.6 1.7.7 3.3.3 3.6-.5.2-.6 1.6-.3 3 .3 2 1.7 3.2 5.9 5 3 1.4 7 2.9 8.9 3.4l3.6 1-.7-4.7c-.9-6.8-.9-13.8 0-15.2.5-.8.4-1.1-.2-.7-1.3.8-2.2-3.3-1.3-5.9.4-1 .5-6.2.2-11.4-.9-13.9-.4-37.2.8-38.4.6-.6 1-2 1-3.3 0-1.4.6-2.3 1.5-2.3.8 0 1.5-.5 1.5-1 0-.6-.7-1-1.5-1s-1.5-.5-1.5-1c0-.6.6-1 1.4-1 2.1 0 3.1-2.1 1.5-3.1-1-.6-.8-.9.9-.9 1.3 0 2.2-.6 2.2-1.5 0-2 2-1.9 3.6.2.8 1.1 1.3 1.3 1.4.5 0-.6.6-1.2 1.3-1.2.6 0 1.9-.5 2.7-1 1.3-.9 1.3-1.1 0-1.9-2-1.3-.8-2.2 2.9-2.3 1.9-.1 3.1-.6 3.1-1.5 0-1.8 4.4-1.7 6 .2.8 1 1.2 5.4 1.1 13.5 0 8.5.3 12 1.1 12 .9 0 .9.3 0 1.2-.7.7-1.2 2.3-1.2 3.7 0 2.1.2 2.3 1 1.1.7-1 .9 1.5.6 7.9-.2 5.2-.1 11.7.3 14.5.8 6.4.3 12.8-1 12.1-.5-.4-.9-.1-.9.4 0 .6.4 1.1.9 1.1 1.3 0 1.9 5.9.7 6.3-.7.3-.7 1.2.3 2.9 1 1.9 1 3.1.2 4.6-.8 1.6-.7 2.1.5 2.6 1 .4 1.4 1.2 1 2.3-.4.9-.1 2 .6 2.5 1 .8 1 1.1.1 1.5-1.8.7-1.6 3 .2 3.7 1.4.5 1.4.9.2 3.3-.8 1.6-1.7 4.6-2 6.9-.8 5.1.4 6.4 9.3 9.2 10.3 3.2 10.9 3.2 12.1 1 .6-1.1.8-2.2.5-2.6-.3-.3-.6 0-.6.6 0 .7-.4 1.2-1 1.2-.5 0-.7-.7-.4-1.5s-.1-2.1-1-3c-.8-.9-1.2-2.3-.9-3.2.6-1.5.7-1.4 1.4.3s.8 1.7.8.1c.1-1.2.6-1.6 1.4-1.1.9.5.9.4 0-.6-.6-.7-.9-1.9-.5-2.8.5-1.3.7-1.2 1.3.4.7 1.9.7 1.9 1.5 0 .5-1.3.3-2.1-.4-2.4-.7-.2-1.2-1-1.2-1.8 0-.9-.4-1.3-.9-1-.4.3-.9-2.1-1-5.4 0-3.2.3-6.1.8-6.4s.6-2.5.4-4.9c-.3-2.5 0-5.4.7-6.6 1.6-3.1.4-8.1-2-8.1-2.1 0-2.7-2.1-3.5-12-.2-3.6-.7-9.7-1.1-13.5-.3-3.9-.5-8.8-.5-11 .3-9.8 1.1-21.6 2-28.7.5-4.2.7-8.9.5-10.5-.2-1.5-.1-2.2.2-1.6 1.1 2.5 2.2 1.2 2.2-2.4-.1-4.8 1-11.3 2.1-12.7.4-.6.6-2.8.4-4.9-.4-2.7-1-3.7-2.3-3.7-1 0-2.1.8-2.3 1.7-.4 1.7-.5 1.7-.6 0 0-.9-.6-1.7-1.2-1.7s-.9-2.2-.7-6c.1-3.3.6-6 1.1-6s.7-.8.6-1.7c-.1-1-.1-2.7 0-3.8.1-1.7.3-1.8 1.1-.5.7 1.1 1 .5 1-2.3 0-2 .5-3.7 1-3.7 1.5 0 1.2-4.6-.4-5.9-.8-.7-1.6-.8-1.8-.4-.3.4-.4.3-.2-.3.4-1.9-2.7-7.1-5-8.4-1.6-.8-2.9-.9-4.2-.2-3 1.6-5.8 2.5-7.1 2.3-.7-.1-1.3.3-1.3.9 0 .5.4 1 .8 1 .5 0 .8 1 .6 2.2-.1 1.3-.3 2.3-.4 2.3 0 0-.3 2.5-.6 5.5-.3 3.5-1 5.8-2 6.3-1.1.6-1.2 1.2-.4 2.2 1.3 1.6 1.1 11.5-.3 11.5-.6 0-.7 2.3-.4 5.5.5 4.7.3 5.5-1.1 5.5-.9 0-2.5-.7-3.4-1.4-1-.7-3.6-1.2-5.8-1-2.9.2-4.3-.2-5-1.4-.7-1.3-1.2-1.4-1.8-.4-.6.9-2.2 1-6.8.2-3.2-.6-6.9-1.5-8.1-2-1.3-.5-4.1-.6-6.5-.1-2.9.5-5.3.3-7.3-.5-1.6-.7-4.6-1.3-6.5-1.4-2 0-4.1-.5-4.8-1.2s-1.2-.9-1.2-.5-1.4.1-3-.8c-2.2-1.2-3.5-1.3-4.9-.5-5.5 2.9-9.9-.5-9.9-7.6 0-3.1.4-4.4 1.4-4.4.9 0 1.4-1.1 1.4-3.1 0-1.6.4-2.8.9-2.5.9.6.5-4.9-.5-6.6-.4-.6-.1-1.4.6-1.8.8-.5 1.5-1.8 1.7-2.9.2-1.5-.1-1.9-1.3-1.4-1.1.4-1.5.2-1.3-.6.3-.7.8-1.2 1.3-1.1.9.2 2.6-1.9 2.6-3.4 0-.5-.7-.3-1.5.4-1.2 1-1.5 1-1.5-.3 0-.8.5-1.7 1.1-1.9s1.5-2.5 1.9-5.1c.6-3.8.4-4.7-.7-4.3-1.4.6-1.8-.6-.6-1.8.4-.4.6-2.2.4-4.1-.1-1.8.2-4.2.8-5.3.5-1 .7-2.9.4-4.2-.6-2.2-.7-2.2-1.3-.5-.4 1.2-.7.1-.7-2.9-.1-4.2 0-4.5 1.3-2.9 1.2 1.7 1.3 1.6 1.4-1 0-1.6-.4-2.6-1-2.2-.5.3-1-.1-1-.9 0-.9.5-1.6 1-1.6 1.3 0 1.3-5.7.1-6.5-.6-.3-.8-5.3-.6-11.3.2-6.6 0-9.5-.5-7.7-.5 2-.6.9-.3-3.5.6-9.2.5-9 1.6-9 .5 0 .7-1.5.3-3.2-.3-1.8-.1-4.9.3-6.8l.9-3.5.2 3c.1 1.6.4 2.3.7 1.5.2-.8.7-2.2 1-3 .4-.8.5-2 .4-2.7-.1-.6.3-1.4.8-1.7s.7-1.6.3-2.8c-.4-1.7-.2-2 1.1-1.5s1.5 0 1.2-2.6c-.4-3.4.9-5.7 3.4-5.7 1.3 0 1.3.2.3.9-1 .6-.7 1 1.2 1.3 2.1.4 2.5.2 2.3-1.6-.2-1.6.4-2.1 2.4-2.1 1.4 0 3.3-.6 4.1-1.2.8-.7 1.8-1 2.1-.6.4.3.7.2.7-.4s1.1-1.3 2.5-1.5c1.5-.3 2.5-.1 2.5.6s2.4 1.2 6 1.3c3.3.1 6-.1 6-.6s-.9-.7-2-.4-2 0-2-.6.5-1.1 1.1-1.1c.5 0 .7-.5.4-1-.4-.6 1-1 3.4-1 2.3 0 4.1-.5 4.1-1 0-.6 1.7-1 3.8-1s4.3-.5 5-1.2 1.2-.8 1.2-.4c0 .5 1 .2 2.3-.7 1.2-.8 3.5-1.3 5.1-1.2 2.3.3 2.7 0 2.3-1.6s.1-2.1 2.4-2.6c1.6-.3 2.9-.9 2.9-1.4s.7-.9 1.5-.9 1.5-.4 1.5-1c0-1.1 3.6-3.5 6.8-4.5 1.6-.5 2.2-.2 2.2.9 0 1.4.2 1.4 1.9-.1 1.1-.9 1.8-2 1.6-2.4-.9-1.3 2.4-3.1 4.6-2.4 1.7.6 1.9.9.8 1.6s-1.1.9-.1.9c1.4 0 4.2-2.4 4.2-3.6 0-.3-.6-.1-1.3.5-.8.6-1.7.8-2 .4-1.2-1.1-.8-2.3.8-2.3.8 0 1.5-.5 1.5-1 0-.6 1.2-1 2.6-1s2.3.4 1.9 1c-.3.5.1 1 .9 1 .9 0 1.6-.7 1.6-1.6q0-1.65 1.8-1.2c1.8.5 4.2-1.3 4.2-3.2 0-.5-.8-1-1.7-1.1-1.3 0-1.1-.3.7-1 1.4-.6 4.3-.9 6.5-.6 2.2.2 5.2 0 6.8-.4 3-.8 3.7.5 1 2s0 3.9 4.1 3.6c2.5-.1 3.3.2 2.9 1.2-.3.7-.1 1.3.5 1.3s1.2-.4 1.4-1c.2-.5.9-.6 1.6-.1 1.1.6 1 1.1-.3 2.5-1.6 1.6-1.6 1.8.5 3.6 1.3 1.1 2.9 2 3.7 2s1.1.4.8 1c-.3.5-.1 1 .4 1 1 0 1.5-1.4 1.2-3.2 0-.4.6-.5 1.4-.2.8.4 1.5 1.2 1.5 1.9s.6 1.6 1.3 1.9c.8.4.7.5-.3.5-3.7-.3-6 .2-6 1.2 0 .5.4.8.9.4.5-.3 1.2-.1 1.6.5.3.5 1.1 1 1.6 1 .6 0 .8-.3.6-.8-.3-.4 1.6-.6 4.1-.5 5 .2 7.7 2.4 6.8 5.5-.3 1.2.2 1.8 1.4 1.8 1 0 2.1.6 2.3 1.2.3.8.6.6.6-.5.1-1.7 2.1-2.5 2.1-.8 0 .5 1.4 1.2 3 1.6 1.7.4 3 1.3 3 2.2 0 1 .6 1.4 2 1 1.1-.3 1.8-.1 1.4.4-.3.5.5 1 1.8 1 1.7.1 1.8.3.6.6-1 .2-1.8.8-1.8 1.2 0 1 3.8 4.1 5.1 4.1.6 0 .9.7.6 1.5-.7 1.7.9 3 1.8 1.5.4-.6 1.6-.8 2.8-.5 1.7.5 1.9.4.7-.4-1.3-1-1.3-1.1 0-1.2 6.5-.6 13 .6 13 2.5 0 1.6 2.1 2.6 5.6 2.6 1.3 0 2.4-.6 2.4-1.3 0-1 1.1-1.3 3.8-1.1 2 .2 4.3.3 5 .3 1.4.1 1.7 3.1.2 3.1-.5 0-1 .7-1 1.5 0 1 1.1 1.5 3.5 1.5 1.9 0 3.5-.5 3.5-1 0-.6.5-1 1.1-1 .5 0 .7.5.4 1-.4.6.9 1 3.3 1 3.7 0 3.8.1 3.4 2.9-.5 3.4 1.3 4.8 3.6 2.8 2.2-1.9 7.2-3.1 7.2-1.7 0 .6.5.8 1.2.4 1.5-.9 24.7-1.4 25.2-.5.8 1.2 17.6 1.3 17.6.1 0-1.9 3.8-5.3 5.4-4.7.8.3 1.7-.1 2-1 .4-.8 1.3-1.3 2.1-.9 2 .7 8.5-2.1 8.5-3.8 0-1.5 3.7-3.2 4.7-2.2.4.3 1.2.1 1.9-.5 1.5-1.2 6.7-2.3 10.9-2.2 2.9 0 5.5-1.6 5.5-3.5 0-1 2.5-2.4 5-2.7 7-.7 12.6-4.7 9.7-6.8-.8-.6-.7-.7.5-.3 1 .3 2 0 2.4-.6.4-.7.9-.6 1.4.2.6 1 1.3.9 3-.3 1.5-1 1.8-1.6.8-1.9-.7-.3 1-.8 3.9-1.2 5.7-.8 10.5 0 8.2 1.4-.9.6-.6 1 1.2 1.4 5.8 1.3 8 1 7.3-.9-.4-1 0-1.5 1.5-1.5 3.1 0 3.7-2.7 1.2-5.1-1.1-1.1-2.1-2.7-2.1-3.5s-.8-2.4-1.9-3.5c-1.6-1.7-1.7-2.5-.8-4.9.6-1.6 1.3-2.7 1.6-2.5.2.3 1.5-.4 2.7-1.6 2.2-2.1 2.4-2.1 7.1-.5 3 1 4.9 1.3 5.1.6.5-1.3 3.9-1.3 4.7 0 .3.5 1.7 1 3.1 1 1.3 0 2.4.5 2.4 1.1s-.8.8-1.7.5c-5.3-1.5-7.3-1.7-7.3-.7 0 .6.5 1.1 1.2 1.1.6 0 .3.7-.8 1.5-1.8 1.3-1.6 1.4 2.1 1.6 2.2.1 5.1.2 6.5.2 2.2-.1 2.6.4 2.8 2.9.2 1.8-.2 2.7-.8 2.3-.5-.3-1-.2-1 .4 0 1.7 2.4 1.8 4.8.3 1.2-.8 2.2-2.1 2.2-2.9 0-1 .6-1.3 1.6-.9.9.3 2.3.6 3.1.6 1.2 0 1.3.3.5 1.3-1.2 1.4-.5 5.7.9 5.7.5 0 .9-.5.9-1 0-.6.7-1 1.5-1 1.5 0 1.9 1.5 1.5 5.9-.1 1.3.3 2.1.8 1.7.6-.3 1.3 0 1.6.6.3.7.4 0 .3-1.7-.1-2.2.3-3 1.6-3.1 1.2-.1 1.3 0 .2.3-.8.2-1.5.9-1.5 1.4 0 .6.5.7 1 .4.6-.3 1 .3 1 1.5 0 1.7.4 2 2 1.5 1.4-.5 1.8-.2 1.5.7-.4.9.2 1.4 1.5 1.5 1.5.1 2-.4 2-2.5.1-2.6.1-2.6 1.5-.8.9 1.2 1.5 1.5 1.5.7s.8-1.1 2-.8c1.1.3 2 .1 2-.4 0-1 4.9-.1 6.3 1.1.4.4.3 1.8-.2 3.3-.7 1.8-.7 2.6.2 2.9 1.7.6 7.9-1.7 7-2.6-.4-.4.1-.4 1 0 1 .4 1.6 1.3 1.3 2-.3.8-.1 1.4.4 1.4 1.7 0 1.1 1.8-.7 2.3-1.7.4-1.7.5 0 .6 1.1.1 1.7.8 1.5 1.8-.2 1.3.5 1.9 2.2 2.1 2.4.3 2.5.3.5-1.2-1.8-1.4-1.8-1.5-.2-1.6.9 0 1.7-.5 1.7-1.1 0-.5.5-.7 1-.4.6.3 1 1.4 1 2.5 0 1 .7 2 1.5 2.4.8.3 1.5 1.3 1.6 2.3 0 1.6.1 1.6.9-.2 1.3-3.1 1.2-4.8-.4-4.2-1 .4-1.2 0-.9-1.4.5-1.9.6-1.9 2.3.1 1 1.1 3.2 2.2 4.9 2.4 3.9.4 4 .5 4.5 4.7.2 1.9.4 3.8.5 4.2 0 .5.5.6 1 .3.4-.3 1.6.3 2.6 1.4 1.9 2.1 5.5 2.7 5.5 1 0-.6.9-1 2-1s2 .4 2 1c0 .5 1.2 1 2.8 1 1.5 0 3.4.5 4.2 1.1 1.1.7.6.8-2 .4-4.3-.7-7.1.8-5.2 2.7 1 1 1.5 1 2 .1.6-1 1.4-.9 3.3.1 1.8.9 3.2 1 4.4.3 1.2-.6 1.6-.6 1.1.1-.3.5.1 1.2.9 1.6.8.3 1.7 0 2.1-.6.4-.7 1-.5 1.6.6.6 1 1.7 1.4 3.1 1.1 2.4-.7 5.9 2.5 7.2 6.4.3 1.2 1.3 2.1 2.1 2.1s1.5.8 1.5 1.7c.1 1 .3 3.5.4 5.6.3 4.5 1.5 6.3 1.5 2.2 0-2.8.1-2.8 1.8-1.2 1.3 1.4 1.4 2 .4 2.5-.9.6-.7 1.4.9 3.1 1.8 1.9 2 2.8 1.2 6-1.3 4.9-1.1 9.7.3 9.4 1.6-.3 2.6 4.1 1.8 7.4-.7 2.5-.5 2.6.9 1.5 1.3-1.1 1.6-1 2.3 1 .3 1.2.7 4 .6 6.3 0 2.3.7 4.8 1.6 5.8 1.4 1.5 1.4 2 .2 2.7-1 .6-.7 1.4 1.8 3.5 1.8 1.5 3.2 3.3 3.2 4s.6 1.6 1.3 1.8c.9.4.9.8-.2 1.5-1.1.8-1.2 1.4-.4 2.4.6.7 1.4 2.8 1.8 4.6.9 4.3 3.3 8.8 4.2 8.2.5-.3 1.1 2 1.4 5s.1 5.8-.4 6.1c-.5.4-.4 1.6.4 3 .7 1.3 1.4 2.8 1.4 3.4.4 3.8 1.9 8.4 2.6 7.9 1.6-1 .9.9-.8 2.2s-1.7 1.4 0 .8c1.8-.7 1.8-.5-.1 3.2-1 2.1-1.7 4.5-1.5 5.1.3.7 0 1.3-.6 1.3-1.5 0-1.4 3.7.2 4.3.7.3.5.6-.5.6-2.3.1-2.4 2.1-.1 2.1 1.2 0 .7.9-1.7 3-3.8 3.4-5 3.7-5 1.4 0-1.3-.3-1.4-1.5-.4-.8.7-2.6 1-4 .8-1.4-.3-2.5-.1-2.5.3 0 .5-.7.9-1.5.9s-1.5-.8-1.5-1.8c-.1-1.6-.1-1.6-1.1.1-.7 1.2-1.4 1.5-2.2.9-2-1.6-7.3-1.7-9.2-.2-1.4 1.2-1.8 1.2-2.6-.1-.6-1-.9-1-.9-.2 0 .9-1.7 1.3-5 1.3-2.8 0-5-.5-5-1 0-.7-.6-.8-1.6-.2-1.8 1-6.1.4-7-.9-.8-1.4-2.4-1-2.4.5 0 2.6-3.8 2.8-8 .5-3.2-1.8-4.1-3-4.8-6.3-.5-2.3-.5-4.9 0-5.8.4-.9.8-3.3.8-5.2 0-2 .5-3.6 1-3.6.6 0 1-1.2 1-2.6s.7-3.2 1.5-4c1.7-1.8 2-5 .5-5.9s-1.2-6.5.3-6.5c.8 0 1.2-1.5 1.2-4.3 0-4.2 0-4.2-6.5-7.4-6.7-3.4-9-4-9-2.3 0 .5-1.3 1-3 1-1.6 0-3 .4-3 .8 0 .5-.8 1.7-1.7 2.8-1 1.1-2 2.6-2.2 3.4-1 4.4-2.2 15.6-1.8 17.2.3 1.1 0 1.8-.9 1.8-.8 0-1.4.8-1.4 1.7 0 1.4.2 1.5.9.4.5-.8 1.1-.9 1.5-.3.3.6.2 1.3-.4 1.7s-.7 1.1-.3 1.8c.4.6.8 2 .9 3.1.1 1.2.7 4.9 1.2 8.4 1 6.2.6 12.8-.8 13.7-.4.3-.5 2.6-.2 5.1.4 4.2.3 4.6-1.4 4-1.5-.4-1.9 0-2 2-.2 3.4-1.3 4.3-2.5 2.1-.6-.9-1.5-1.7-2.2-1.7s-.6.4.3 1c1.3.9 1.3 1 0 1.1-.8.1-1.9.1-2.4 0-.9-.2 1 2.7 2.9 4.2.6.6.6 1-.2 1.4-.7.2-1.4 2.1-1.4 4.1-.1 2-.3 2.9-.6 1.9-.2-.9-.9-1.7-1.5-1.7s-.7.8-.3 1.7c.3 1 .9 3 1.2 4.5.6 3 2.1 3.6 4.1 1.6.9-.9 1.2-.8 1.2.5 0 .9-.4 1.7-1 1.7-1.9 0-1 2.7 1.3 3.8 2.3 1.2 4.3 1.2 6.5-.1 1.6-1.1 3.2 0 3.2 2.1 0 1.5.2 1.5 1 .2.8-1.1 1-.2.8 3.2-.2 2.7-.6 4.8-.9 4.8s-.6 1.4-.6 3c0 2.2.4 2.9 1.4 2.5 1.1-.4 1.3.1.7 1.8-.4 1.2-.8 3.1-.9 4.2s-.8 2-1.6 2-1.5.6-1.5 1.2c-.1.7-.3 1.6-.4 2-.1.5-.1 1.2 0 1.8.1.5.4 3.7.6 6.9.2 3.3.8 6.4 1.4 7 .7.7 1 .5 1-.7 0-.9.4-1.7.9-1.7.9 0 .7 13.7-.3 14.7-.3.3-.6-.5-.7-1.8v-2.4l-.9 2.3c-.6 1.3-.6 3.8-.1 6 .8 3.4.9 3.5 1 .8.1-1.6.4-2.7.7-2.3.7.6 1.3 7.4 1.8 20.2.2 4.9.6 13 .8 18 .2 4.9.1 9.5-.4 10.2-.5.6-.5 1.4.1 1.7.6.4.8 1.3.4 2.1-.7 2 1.8 1.9 8.8-.1 3-.8 8.3-2.4 11.9-3.4l6.5-1.9-.1-9.8c0-5.4.2-10.5.5-11.3.8-2 3.1-2.4 3.1-.5 0 .8.7 1.5 1.5 1.5s1.5-.3 1.5-.6c0-1.1-2.9-3.4-4.1-3.2-.9.2-1.3-1.3-1.3-4.7-.1-4 .2-5 1.5-4.9 1.2.1 1.6-.6 1.4-2.6-.1-1.5-.5-3.2-.8-3.7-1-1.6.3-4.4 1.6-3.6.6.4.7-.4.3-2.3-.4-1.6-.8-3.3-.9-3.9-.1-.5-.9-1.5-1.7-2.2-1.3-1-1.3-1.2.3-1.8 1.9-.8 2.5-7.5.7-7.5-.5 0-1-.7-1-1.6 0-1.4.2-1.4 1.6-.3 1.5 1.2 1.6 1.1 1-1.6-.3-1.7-.7-4.9-.8-7.3-.1-2.3-.6-4.2-1-4.2-.5 0-.6-1-.3-2.3.3-1.2.8-6 1.1-10.7.6-11.1.7-11.9 1.6-11.4.5.3 1.1-.2 1.4-1 .3-.9 1.1-1.3 1.7-.9s.8-.2.4-1.6c-.4-1.6-.2-2 .6-1.3 1.3 1.1 4.1-1.1 3-2.2-.4-.3-.3-.6.1-.6s1.5.7 2.3 1.6c1.2 1.1 1.3 1.8.5 2.3-.6.4-1.1 2.7-1 5.1.2 6.4-.4 12.3-1.2 13.5-.7.9-.9 2.1-1.2 6.2 0 1 .2 5.1.4 9.1.3 4 .1 7.5-.3 7.8-.5.2-.6 1.8-.2 3.4.3 1.8.1 3-.5 3-.7 0-1.2 4.2-1.4 11.2-.2 6.2-.7 12.2-1.2 13.2-.6 1.3-.6 1.7.1 1.3 1.2-.8 1 4.3-.5 11.8-.6 2.7-.7 5.2-.3 5.5s1.1 2.2 1.4 4.4c.3 2.1.9 4.1 1.2 4.4.6.7 10.8-2.4 14.9-4.5 2.2-1.1 2.6-1.7 1.5-2.3-.7-.5-1.6-.7-1.9-.5-.4.2-.4-.9-.2-2.5s.7-2.8 1.1-2.7c.3.1.6-.3.6-.8 0-.6-.3-.9-.7-.7-1.1.3-1-2.2.2-5.3.6-1.6 1.4-2.3 2.1-1.9q1.2.75.6-1.8-.75-2.55.9-3.9c1.4-1.1 1.4-1.3 0-2.1-1.8-1-2.2-3.8-.6-3.8.6 0 1-.7 1-1.5 0-1.8-1.6-2-2.4-.3-.3.7-.3.3 0-1 .4-1.6.1-2.2-1.2-2.2-1.5 0-1.6-.2-.2-1.8 1.9-2.1 5-11.1 4.2-12.3-.3-.5-.1-.9.5-.9.5 0 .9-.9.8-2s-.7-2-1.4-2-1.3-.5-1.3-1.1c0-.5.5-.7 1-.4.6.3 1-.3 1-1.4s-.5-2.3-1-2.6c-.6-.4-.9-2.4-.7-4.6s0-4.2-.5-4.5c-1-.6-.8-10.3.2-10.9.4-.3.5-3.6.2-7.3-.3-4.6-.1-7.2.7-7.6.6-.4 1.1-2.3 1.1-4.3 0-2.7.3-3.4 1.5-2.9.8.3 1.8-.2 2.3-1.1.5-.8 2.2-1.6 3.8-1.6h2.8l-3.5-1.8c-2.6-1.4-3-1.8-1.4-1.9 1.1-.1 3.2-.3 4.7-.5 2.9-.4 4.8 1.2 2.9 2.4-1.2.8-.4 19.1.9 19.1.4 0 .6 2 .5 4.5s.1 4.5.5 4.5c1 0 .7 7.1-.3 8.7-.5.7-.3 2.2.4 3.4.6 1.2.8 3.5.5 5.3-1.1 5.1-.8 14.9.5 15.6.8.6.8 1.3-.1 3-1 1.8-1.4 2-2.1.9-.6-1-.9-.8-.9.9 0 1.3.4 2 1 1.7 1.8-1.1 1 5.2-1 7.8l-2 2.5 2.1-.5c1.6-.5 2-.2 1.7 1.3-.2 1.1-.9 2.4-1.7 3-1.2.9-1.1 1.2.4 1.7 1 .4 1.5 1.3 1.1 2.2-.3.8 0 1.5.6 1.5s.5.6-.3 1.7c-1.1 1.3-1.1 1.7-.1 2 .6.3 1.2 1.6 1.2 3 0 2.2.3 2.4 2.5 1.9 1.4-.4 5-1.7 8-3 4.6-2.1 5.5-3 6.4-6.1.6-2.4.6-4.6-.1-6.6-.6-1.7-.8-4.8-.5-7 .3-2.1.2-3.9-.3-3.9-1.6 0-1.7-4.2-.5-17.6 1-10.4 1-14.2.2-15.6-.9-1.4-.9-2 0-2.6.7-.5.9-1.9.4-4.2-.4-1.9-.4-5.7 0-8.5.3-2.8.2-6-.4-7.3-.7-1.5-.7-3.3 0-5.7.7-2 .7-3.5.2-3.7-.6-.2-.5-2.5.2-5.8.7-3 1.4-4.9 1.6-4.3.3.7 1.1 1.3 1.9 1.3s1.4.5 1.4 1.2c0 .6.3.8.7.5.3-.4 0-1.8-.7-3.2-1.5-2.7-.7-4.6 1.2-2.7.9.9.9 1.2-.2 1.2-1.3 0-1.3.2 0 1 .8.5 1.5 1.4 1.5 2 0 .5.3 1 .8 1h2.1c1.7 0 2.9-4 1.3-4-2.9-.1 3.2-2.5 6.3-2.5 2.4 0 3.5-.5 3.5-1.5 0-.8 1-1.6 2.3-1.8 1.9-.3 2.1-.6 1.1-1.8-1.9-2.3-.3-4.7 2.7-4 2.2.6 2.5.4 2.2-1.6-.2-1.5.2-2.2 1.1-2s1.1-.3.7-1.4c-.4-1.2-.2-1.5.9-1 .8.3 1.5 0 1.5-.7 0-2.1-1.9-4.2-3.7-4.2-1.6-.1-9-6.5-9.3-8.2-.1-.3.4-1 1.2-1.4.9-.6.7-.9-.9-.9-2.1 0-2.3-.4-2-6 .1-3.3-.1-6-.5-6-.5 0-.8 1.7-.9 3.7 0 3.3-.1 3.5-.9 1.5-.5-1.2-1.4-2.2-2-2.2-.5 0-1-1.1-1-2.5s.5-2.5 1-2.5c.6 0 .4-1.2-.4-2.9-1-1.9-1.2-3.1-.5-3.8.8-.8.7-1.3 0-1.7-.6-.4-.8-2-.4-3.7.4-2.1.1-3.4-.8-4-1.1-.7-1.2-1.2-.1-2.9 1-1.6 1-2.4 0-4-.7-1.1-1.8-2-2.5-2s-1.3-.7-1.3-1.6c0-.8-.4-1.2-1-.9-.6.4-1-.5-1-2 0-1.4.7-2.8 1.5-3.1 1.4-.6 1.4-.8-.1-1.8-.8-.7-1.8-3-2.1-5.1-.3-2.2-.9-4.2-1.4-4.3-1.8-.7-.9-3.1.9-2.6 1.6.5 1.6.5 0-.9-1-.8-1.8-2.1-1.8-3s-.6-1.3-1.7-1.1c-2.6.7-4.3-4-3.9-10.3.3-5.4-.6-7.2-4.6-8.6-1.1-.4-1.8-1.7-1.8-3.1s-.4-2.7-.9-3c-.4-.3-1.1-2.7-1.4-5.3-1-7.5-1.3-8.4-2.4-9.1-.6-.4-1.3-1.7-1.7-3-.4-1.2-1.1-2.2-1.5-2.2s-.6-1.2-.4-2.7c.5-3.4-1.3-8.7-2.7-7.8-.6.4-1-.7-1-2.4 0-1.9-.5-3.1-1.3-3.1-.9 0-1.4-1.2-1.5-3.1 0-1.7-.6-3.6-1.2-4.4-.6-.7-.9-1.9-.8-2.6.2-.8-.2-1.3-.8-1.2-.7.1-1.5-.9-1.8-2.3-.8-3.1.3-11.2 1.5-12 1.2-.7 1.1-2.4-.1-2.4-.5 0-1.8-.8-2.8-1.7-5.4-5.1-10-7.4-13-6.6-1.1.2-3.3-.2-4.8-1-1.6-.8-4.5-1.8-6.4-2.2s-4.2-1.3-5-1.9c-.8-.7-3.6-2-6.2-3-2.7-1-4.8-2.2-4.8-2.7s-1.8-1.2-4-1.5c-2.2-.4-4-1-4-1.5 0-1.2-4.3-5.4-5.5-5.4-.5 0-5.4-2.2-10.7-4.8-5.4-2.7-10.2-4.6-10.7-4.3s-1.1-.1-1.5-.9c-.3-.8-1.2-1.2-2-.9s-1.7.1-2.1-.5c-.3-.6-1.7-1.1-3-1.1s-2.7-.5-3-1-1.7-1-3-1-3-.8-3.7-1.8c-1.4-1.7-4.1-3.7-6.8-4.8-7.2-3-11-4.9-11-5.6 0-.4-.8-.8-1.8-.8-3.9 0-11.4-9.1-11.7-14.2-.1-3.1-15.5-8.7-15.5-5.6-.1 1.2-6.5 4.8-8.8 4.8-.6 0-2-1.2-3.2-2.7-1.8-2.4-3-2.8-8.7-3.1-3.6-.3-6-.8-5.3-1.2 1.7-1-1.8-5.9-4.2-6-1 0-2.3-.9-3-2s-2.3-2-3.5-2-3.5-1.1-5.1-2.5c-1.7-1.4-3.8-2.5-4.7-2.5s-1.9-.9-2.2-2-.9-1.7-1.4-1.4c-.5.2-1.9-.7-3.1-2.2-1.3-1.5-3.1-3.4-4-4.3-1-.8-1.8-2.6-1.8-3.8 0-1.4-.6-2.3-1.5-2.3-.8 0-1.5-.5-1.5-1 0-.6.6-.9 1.3-.8.6.2 1.2-.3 1.2-1 0-.6-.4-1.2-.8-1.2-.4.1-1.5-.6-2.3-1.5-1.3-1.2-1.5-3-1.1-8.5.4-5.3.2-7-.8-7-1.6 0-2.8-4-1.2-4 .7 0 .3-.7-.7-1.5-1.7-1.3-1.8-2-.9-6.2.9-3.6.8-5 0-5.5-.7-.4.8-.6 3.1-.5 2.4.2 4.6-.1 4.8-.5.3-.4 1.8-.8 3.5-.8 1.6 0 2.9-.5 2.9-1 0-.6 1.8-1 3.9-1 2.2 0 4.3-.5 4.6-1 .8-1.3 5.5-1.3 5.5.1 0 .6.7.3 1.6-.5 1.6-1.7 2.7-2 5.7-1.7 1 .2 1.7-.5 1.7-1.5 0-1.4.3-1.5 1.2-.6s1.8.6 3.9-1.4c2.2-2.1 3.5-2.5 6.3-2.2 2.3.2 3.7-.1 4-.9.3-.7 1-1.3 1.6-1.3s.8.5.4 1.1c-.4.7.8.3 2.7-.7s3.5-2.2 3.7-2.5c.1-.3 1.5-.4 3-.1 2.4.5 2.6.4 1.3-1.1-1.1-1.4-1.1-1.7 0-1.8.8-.1 1.7-.1 2.2 0 .4.1 2.3-.5 4.2-1.3 2.5-1.1 3.3-1.9 2.9-3-.3-.9-.1-1.6.6-1.6.6 0 .8.4.5 1s.1 1 1 1 1.9-.9 2.2-1.9c.3-1.1 1.8-2.4 3.4-3 1.6-.5 3.2-1.7 3.5-2.6.3-.8 1.2-1.5 2-1.5s2.3-1.1 3.5-2.4c1.3-1.5 2.8-2.2 4-1.9 1 .3 1.9.1 1.9-.5 0-.5.8-1.2 1.8-1.6.9-.3 2.4-1 3.2-1.5 2-1.3 5.3-2.5 6.3-2.3.4.1.7-.5.7-1.4 0-.8.3-1.3.8-1 1.3.8 4.5-2.2 3.9-3.8-.4-.9.1-1.7 1.4-2.1 1-.4 1.9-1.1 1.9-1.6s.8-.9 1.9-.9c1 0 2.4-.7 3.1-1.5s2.3-1.5 3.6-1.5c2.7 0 4.4-2 1.7-2.1-1.4 0-1.3-.2.6-1 1.4-.5 2.1-1.5 1.8-2.3-.4-1 0-1.2 1.5-.8 1.4.3 1.9.1 1.4-.6-.7-1.1.4-2.4 5.2-6.1 1.8-1.3 3.2-3 3.2-3.6 0-.7.8-1.2 1.8-1.1.9 0 1.7-.6 1.7-1.5 0-2.2 2.5-5 3.8-4.2.5.3.7.1.3-.5-.3-.6-.2-1.3.4-1.7.5-.3 1-.1 1 .6 0 1.7 1.3.2 1.6-1.7.5-3.1 1.5-4.6 2.8-4.1.9.4 1.2-.2.8-1.8-.2-1.2.2-2.6.9-3 .9-.6 1.1-.3.6.8-.4 1.1-.1 1.7.8 1.7.8 0 1.5-.5 1.5-1 0-.6.8-1 1.8-1.1 1.4 0 1.4-.2-.3-.9-1.9-.8-1.9-.9.3-.9 1.2-.1 2.2-.7 2.2-1.5 0-.7.9-1.6 2-1.9s2-1.1 1.9-1.9c0-1-.2-1-.6-.1-.8 2-2.2 1.5-1.6-.6.3-1.3 1.1-1.7 2.6-1.3 1.9.5 2 .3.9-1-1-1.3-.7-1.8 2-3.1 1.8-.9 3.2-1.8 3.1-2.1-.8-1.6 0-2.6 2.2-3.2 2.5-.6 3.5-2.4 1.4-2.4-.5 0-.7-.5-.4-1 .3-.6 1.5-1 2.5-1 1.6 0 1.8-.4 1-2.4-.6-1.8-.5-2.8.6-3.7 1.2-1 1.3-.9.8.5-.3.9-.2 1.6.4 1.6 1.6 0 3.4-2.8 2.7-4.1-.4-.6-.4-1.4.1-1.8 1.1-.7 2.7-3.3 5-7.9.9-1.7 2-3.2 2.5-3.2s.9-.5.9-1.1c0-.5 1-2.5 2.3-4.4 1.9-2.8 2.6-3.2 3.7-2.2 1 1 1.2.8.7-1.1-.3-1.2-.1-2.2.5-2.2s.8-.6.5-1.4c-.6-1.5 2.7-4.8 3.9-3.8.4.4.4.1-.1-.7-.5-.9.2-2.1 2.1-3.7 1.8-1.4 2.3-2.3 1.4-2.4-1 0-.9-.4.6-1.4 1.2-.8 2.1-2.8 2.2-4.7.2-1.9 1.4-5 2.8-7s2.4-4 2.3-4.5-.1-2.3 0-3.9c.1-2.4.3-2.7 1.2-1.5.8 1.1.9.4.5-2.7-.3-2.3-.2-4.4.4-4.8.5-.3.7-1.2.3-2-.3-.8 0-1.5.6-1.5 1.5 0 1.4-2.7-.1-3.2-1-.4-.9-1.4.1-4.6.8-2.3 1.8-4.2 2.2-4.2.9 0-.1-4.1-1.4-5.8-.8-1-.7-1.6 0-2 .6-.4 1.2-2.1 1.3-3.7.3-4.4.1-5.2-1-3.5-.6.9-1 1-1 .3 0-.6.5-1.5 1-1.8.6-.3 1-1.5 1-2.5 0-1.3.5-1.7 1.4-1.4.8.3 1.7.1 2.1-.5.3-.6-.1-1.1-.9-1.1-2.4 0-1.9-1.6.9-3.4 2-1.3 2.4-2.2 1.9-4.1-.4-1.6-.2-2.5.6-2.5.6 0 .8-.5.5-1-.3-.6-.1-1 .4-1 .6 0 1.1-.5 1.1-1.1 0-.5-.5-.7-1.1-.3-.8.4-.7 0 .1-1.5.6-1.2 1.6-1.8 2.2-1.5.6.4.8.3.5-.4-1.1-1.6.4-4.4 1.9-3.8.8.3 1.4.1 1.4-.3 0-.5.3-1.7.6-2.5.5-1.2.2-1.5-1.2-1-1.6.6-1.7.5-.7-.7.7-.7 1.3-1.9 1.3-2.7 0-.7.7-2 1.5-2.8.9-1 1.3-2.5.9-3.9-.8-3.2.4-6.8 2.1-6.1 1.6.6 2.5-1.4 2.5-5.5 0-2.7 1.3-3.9 2.3-2.2.2.5.2.1-.1-.7-.2-.8-.4-2-.4-2.5.3-3.7 1.2-22.4 1.2-24.3 0-1.3.5-3.3 1.1-4.4.8-1.6.8-2.3-.2-2.9-1.1-.7-1.1-.9.2-.9.9 0 2.3-.8 3.1-1.8 1.3-1.5 1.3-1.9-.4-3.5-1-.9-1.8-1.4-1.8-1s-.5.2-1.1-.4c-.7-.7-.8-1.7-.1-2.8.8-1.5 1.1-1.3 2.3 1.4 1.3 2.9 2.8 4.1 3 2.3 0-.4.2-1.7.5-2.9.2-1.4-.4-2.8-2-4-1.5-1.2-2.2-2.7-2-4.3.1-1.4.3-3.5.3-4.8.1-1.4.5-2 1.2-1.7.7.5.9-1.3.6-5.9-.3-3.6-.2-6.6.1-6.6.4 0 1.2-1.2 1.9-2.6 1-2.2 1-3-.2-4.8-1.6-2.2-2-5.6-.7-5.6.4 0 .8-1.9.8-4.3 0-6.2.7-11.8 1.5-12.3.4-.2.4-1.7-.1-3.3-.5-1.7-.4-3.3.2-3.9.5-.5 1-3.7 1.1-7.1.1-3.6.5-6.1 1.2-6.1.6 0 1-2 1-4.8-.1-4.2.7-8.8 2.3-13.2.7-2.1 1.5-11.5 1.5-18 0-3 .2-4.9.5-4.2.2.8 1.1.3 2.4-1.3 1.1-1.4 1.7-2.9 1.4-3.3-.4-.3-1.1 0-1.6.8-.7 1.1-1 .9-1-1.2 0-1.5.5-3 1-3.3.6-.3 1 .2 1 1.1 0 2.8 1.4.6 3.2-4.9l1.7-5.2-2.5 3c-1.3 1.6-2.4 2.4-2.4 1.7s1.1-2.5 2.5-4c2.9-3.1 3.2-4.7 1-5.6-.8-.3-1.5-1-1.5-1.5 0-.6.6-.8 1.3-.5 1.1.4 1.3-1.2 1.2-7.2-.1-5.5.3-7.8 1.2-8.1.8-.3 1.1-1.3.8-2.3-.4-1.2.2-2.4 1.7-3.4 1.7-1.2 2-1.8 1-2.8-1.6-1.6-4.2-1.9-4.2-.5 0 .5-.3.7-.7.4-.4-.4-.7-3-.7-5.7-.1-6.1-1.9-8-7.7-8.5-3.7-.4-4-.3-1.4.4 1.7.5 2.2.9 1.3 1-1 0-1.8.6-1.8 1.2 0 .5-.4.8-.8.5-.5-.3-1.9 1.8-3.2 4.7s-3 5.7-3.8 6.3c-.9.7-1.3 1.8-.9 2.9.5 1.3.3 1.6-.8 1.2-.8-.4-1.7-.1-2.1.5-.4.7-.3.8.4.4s1.2-.1 1.2.7-.7 1.7-1.5 2.1c-.8.3-1.5 1.2-1.5 2s-1 1.6-2.2 1.8c-1.3.2-2.4 1.1-2.7 2.3-.2 1.1-1 2.5-1.9 3.1s-1.3 1.8-.9 2.7c.3.9.2 1.9-.4 2.3-.6.3-.9 1.8-.8 3.2.2 1.5 0 3.3-.5 4-.5.8-1.1 5.5-1.3 10.5-.3 5.1-.9 9.4-1.4 9.5-.5.2-.7.8-.3 1.3.3.5-.2 3.6-1 7-.9 3.3-1.6 7.1-1.6 8.3s-.4 2.6-.9 3.1c-1.1 1.2-2 7.8-2.6 19-.3 5.2-.1 7.1.4 5.5l.9-2.5.1 2.7c.1 1.4-.5 2.9-1.1 3.2-1 .5-1 .7 0 1.2.6.3 1.2 1.5 1.2 2.5 0 1.2-.4 1.7-1.1 1.3q-1.05-.6-.6 1.2c1.5 5.3 1.8 11.6.6 13-1 1.3-1 1.7 0 2.4.9.5 1 1 .2 1.4-.6.4-1.1 2-1.1 3.5s-.4 4.1-1 5.7c-.5 1.6-1.1 4.7-1.4 6.9-1.4 12.7-4 24.5-5.3 24.1-.7-.3-1.3.1-1.3.8 0 .8.5 1.6 1.1 1.8.7.2.5 1.8-.5 4.8-.9 2.5-1.6 6.2-1.6 8.2s-.4 4-1 4.3c-.5.3-1 2.5-1 4.9 0 2.3-.4 4.6-.9 5.1-.6.6-1.2 3.2-1.4 6-.2 2.7-.9 6-1.6 7.3-.6 1.2-1 2.6-.7 3.1.3.4.1 2.1-.4 3.7s-1.4 5.6-2.1 8.9c-1.4 7-2.5 8.7-3.6 5.8-.7-1.8-1-1.9-2.1-.7-1 1.1-.9 1.6.8 2.6 1.1.7 2 1.9 2 2.6 0 1-.5.8-1.7-.4-1.7-1.7-1.8-1.7-2.1.5s.3 3 3.3 4.6c.6.3.5.7-.2 1.1-.7.3-1.3 1.9-1.3 3.5s-.5 2.9-1.1 2.9-.9.9-.6 2 .1 1.8-.4 1.4c-.5-.3-.9-2.1-.9-4.1 0-3-.2-3.4-1.5-2.3-2.3 1.9-2.8 4.8-1.1 6.5.8.8 1.9 1.5 2.4 1.5 1.3 0 1.9 4.5 1.4 9.8-.4 3.6-.7 4.2-2.3 3.7-1.7-.6-1.8-.3-1 1.8s.6 2.6-1 3c-1.9.5-2.7 2.7-.9 2.7.6 0 1 .7 1 1.5s-.4 1.5-1 1.5c-.5 0-1 1.1-1 2.4 0 1.4-.4 2.8-1 3.1-.5.3-.9 2.3-.9 4.3.1 2 .1 5.4.1 7.4v6c.1 1.3-.2 3.6-.7 5.2-.5 1.7-.4 2.7.1 2.3.5-.3.9 2.6.9 6.4 0 5 .4 6.9 1.3 6.9s1.1.7.6 2.2c-1.5 4.9-2.3 6.4-4.3 7.8-1.2.8-2.1 2.3-2.1 3.4s-.3 1.6-.7 1.3c-.6-.6-2 1.3-3.9 5.3-.4.8-1.5 2-2.3 2.7-1.1.8-1.2 1.2-.3 1.3.6 0 1.2.5 1.2 1.2 0 .6-.3.8-.7.5-.9-.9-4.3 2.3-4.3 4 0 .8-.5 1.1-1 .8-.6-.3-1.3.2-1.7 1.2-.3 1-1.5 2.9-2.5 4.2s-1.8 3.3-1.8 4.4-.3 1.8-.6 1.4c-1-1-9.4 9.6-9.4 11.8 0 1.7-.2 1.7-1 .5s-1-1.2-1-.1c0 .7-3.1 4.4-7 8.2-3.8 3.8-7.7 8.3-8.6 10.1-2.2 4.3-4.5 6.9-5.5 6.2-.5-.3-.9.4-.9 1.5 0 1.4-.5 1.9-2 1.6-1.1-.2-1.9-.1-1.9.3.3 2-.3 3.1-2.1 3.7-1.1.3-2 1.1-2 1.6s-1.8 2.9-4 5.1c-2.2 2.3-4 4.6-4 5s-.9.8-2 .8c-1.4 0-1.8.5-1.3 1.7.4 1.4.3 1.5-.6.7-1.7-1.6-6.1.5-6.1 2.8 0 1-.4 1.8-.9 1.8s-3 2-5.4 4.5c-3.1 3.1-5.4 4.5-7.2 4.5-1.6 0-2.4.4-2 1.1.8 1.3-2.3 3.8-4.7 3.9-1 0-1.8.5-1.8 1.1s-.7.8-1.6.5c-1.8-.7-6.6 2.2-5.8 3.5.3.5.2 1.4-.2 2.1-.5.8-1 .6-1.5-.8-.7-1.7-.8-1.7-.8-.1-.1 1.2-.7 1.7-1.9 1.5-1.1-.2-1.9.1-2 .5s-.7 1.4-1.4 2.2-1.9 2.1-2.6 2.9c-.9 1.2-1.8 1.3-3.8.5-3.2-1.2-6.4-.3-6.4 1.7 0 1.1-.6 1.3-2.1.9-1.5-.5-1.9-.4-1.5.4.4.6 0 1.1-.9 1.1-.8 0-1.8.6-2.1 1.4s-1.1 1.3-1.8 1-2.6.2-4.2 1.1c-1.6.8-3.9 1.5-5.1 1.5-2.4 0-7.3 2-7.3 2.9 0 .4-1.2.6-2.7.5-1.6-.1-4 .5-5.5 1.2-1.5.8-4 1.4-5.7 1.4-1.6 0-3.2.4-3.6.9-.3.5-3 1.3-5.9 1.6-3.5.5-5.7 1.3-6 2.2-.4 1-1.4 1.3-3.1.9-1.5-.4-2.5-.2-2.5.4s-.5.8-1.1.4-3.2-.8-5.8-.9c-2.5-.2-6.1-.9-7.9-1.6-2.1-.9-3.5-1-4-.4-.4.6-2.9 2-5.7 3.3-2.7 1.3-5.8 2.8-6.7 3.3-1.1.5-1.8.5-1.8 0 0-1.6-6.1-3.1-12.5-3.1-3.4 0-8.7-.5-11.6-1-3-.6-8.8-1.3-12.9-1.6-4.1-.2-8.6-.7-9.9-1-1.4-.3-2.7 0-3.2.7-.5.9-1.1 1-2.1.2-.7-.5-5.3-1.6-10.3-2.2-4.9-.7-12.1-2.1-16-3-3.8-.9-10.4-1.8-14.5-2-5.1-.1-7.9-.7-8.6-1.7-.6-.7-2-1.4-3-1.4-1.6 0-1.7-.2-.4-1 1.2-.8 1.1-1-.6-1-1.2 0-2.7-.7-3.4-1.5s-2.5-1.5-3.9-1.5c-1.5 0-4.2-1.1-6-2.4s-4.7-3-6.4-3.7c-1.8-.7-3.8-2.1-4.5-3-.6-1-2.6-2-4.2-2.4-1.7-.4-3-1.1-3-1.6s-.6-.9-1.3-.9-2.6-1.4-4.2-3-3.2-3-3.7-3c-1.3 0-4.7-3.3-4.3-4.1.3-.4-.2-1.2-1-1.9-1.2-1-1.5-1-1.5 0 0 .7-1.2-.3-2.7-2.3-1.6-2-3.5-3.6-4.4-3.7-1.9 0-5.9-4.1-5.9-6.1 0-1.2-.2-1.2-1 .1-.9 1.3-1.1 1.3-2 0-.5-.8-1-2-1-2.6 0-.7-1.6-1.5-3.7-1.9-2.6-.5-5.2-2.2-9.4-6.6-3.1-3.2-6.1-5.9-6.6-5.9s-2.4-2-4.2-4.4-4.4-5-5.7-5.7c-1.4-.7-2.3-1.8-2-2.4.2-.6-.9-1.7-2.5-2.4s-2.9-1.8-2.9-2.5c0-.6-.9-1.8-2.1-2.6-1.1-.8-2.7-2.8-3.6-4.3-.9-1.8-2-2.7-2.9-2.3-.8.3-1.4.1-1.4-.3 0-.5-2.2-3.2-5-6-4.1-4.2-5-5.8-5.6-10-.4-3-1.2-5.2-2.1-5.5-.8-.4-1.3-1.3-.9-2.1.3-.8 0-1.4-.7-1.2-.7.1-1.3-1-1.5-2.6-.2-1.5-.7-2.7-1.2-2.7s-1.7-2.5-2.6-5.5c-1-3-2.1-5.5-2.5-5.5s-.9-.9-1.2-2.1c-.3-1.1-1.4-2.3-2.4-2.5-1.1-.3-2.4-1.4-3.1-2.5-1.3-2-.6-6.9.9-6.9.5 0 .9-.5.9-1.1 0-.5-.6-.7-1.2-.3-1 .6-1 .5-.1-.8.7-.8 1-1.8.6-2.1-.3-.4.3-1 1.3-1.4 1.7-.6 1.6-.8-.6-1.3-2-.5-2.4-1.2-2.2-3.2.1-1.6-.4-2.8-1.3-3.2-1.1-.4-1.5-1.9-1.4-5.8.1-3.1.4-4.1.6-2.5.4 2.7.5 2.8 1.8 1 1.4-1.7 1.4-1.7 1.5.1 0 1.1-.7 2.8-1.7 3.8-1.9 2.1-1.4 3.1 1.1 2.2 1.9-.7 2.3-8.4.5-8.4-.9 0-1-2.1-.6-7.4.5-6.1.4-7.5-.9-8-.8-.3-1.2-.2-.9.4s-.1.7-1 .4c-1.8-.7-4.5-5.5-4.5-7.9 0-.9-.5-1.3-1-1s-1 .1-1-.4c0-1.5 2.7-1.4 3.3.1.3.7.3-.1.2-1.7-.2-1.7-.4-3.7-.4-4.5-.1-.8-1.1-2-2.3-2.5-2.2-1-2.3-1.5-2.6-17.3-.2-11.1.1-16.2.8-15.7.5.3 1 .1 1-.4 0-.6-.4-1.1-.9-1.1s-.8-1.1-.7-2.4c0-1.4.6-2.2 1.4-1.9.8.4 1.2-.5 1.2-2.6 0-1.7-.4-3.1-1-3.1-.5 0-1 .5-1 1.1 0 .5-.4.8-.9.5s-.7-1.5-.4-2.7c.4-1.2.9-1.6 1.3-1 .4.7 1.9-.3 3.8-2.5 1.8-2 2.9-4 2.6-4.6-.4-.6-1-.5-1.5.3-.7 1.1-.9 1.1-.9.1 0-.7-.5-1-1.1-.6-.6.3-1.5 0-2-.7-.6-1-.9-1.1-.9-.2 0 .7-.7 1.3-1.6 1.3-1.4 0-1.6-.9-1.2-6.5.5-5.1.3-6.5-.8-6.5-1.7 0-1.8-1.7-.1-2.3q1.35-.6 0-.6c-1.6-.1-1.8-9.1-.3-9.1 1.3 0 1.3-4.7 0-5.2-.6-.2-1.1-3.8-1.2-8-.1-5.8-.5-7.8-1.6-8.3-1.3-.5-1.3-.7.2-1.8 1.1-.8 1.5-1.9 1-3-.5-1.4-.9-1.5-2-.6s-1.4.5-1.6-2.2c-.1-1.9-.2-4.5-.3-5.9 0-1.4-.4-3.2-.7-4-.4-.8-.9-6.4-1.2-12.3-.3-6-.9-11.4-1.4-12-.6-.7-1-4-1-7.5s-.2-6.6-.6-6.9c-.3-.4-.6-2.6-.6-4.9 0-2.4-.5-4.6-1.2-5q-1.05-.75-.3.6c.5.8.4 1.1-.3.6-.6-.4-.9-1.3-.6-2.1.4-.8 1-1.2 1.5-.9s.9-.2.9-1.1c0-1.1-.5-1.5-1.4-1.2-.8.3-1.7-.1-2-.9-.4-1.2-.1-1.4 1.4-.9 1.2.4 2 .2 2-.5 0-.6-.4-.9-.9-.6-1 .7-2.2-1.7-2.7-5.1-.1-1.3-.6-3.3-.9-4.4-.4-1.2-.2-2.4.4-2.8.5-.4 1.2-2.3 1.5-4.3.5-4 3.2-8.4 5.6-9.1 2.4-.6 4 .3 4 2.4 0 1 .7 1.9 1.5 1.9 1.9 0 3.6-4.1 2.8-6.9-.3-1.3-.1-2.1.7-2.1.7 0 .9-.8.5-1.9-.3-1.1-.1-2.2.5-2.6 3.6-2.2-5.2-3.9-11.7-2.2-1.3.3-2.3.1-2.3-.4 0-.6-.9-.7-2.1-.4-1.8.6-2 .5-1-1.4.7-1.2.8-2.1.3-2.1s-1.2-2.8-1.4-6.2c-.3-3.5-1-6.4-1.6-6.6-.7-.2-1-1.3-.6-2.6.3-1.5-.2-2.8-1.5-4-2.5-2.3-3-5.6-.6-3.6 1.2 1 1.5 1 1.5-.3 0-.8-.6-1.8-1.2-2.1-.9-.3-.8-.8.5-1.6 1.4-.9 1.6-1.5.6-2.6-.8-1-.8-1.4 0-1.4.6 0 1.1.4 1.1 1 0 1.8 3.1 1 5.5-1.5 1.4-1.3 2.5-3.6 2.5-5 0-1.8.7-2.8 2.4-3.5 1.3-.5 2.6-2 3-3.6.5-1.9 1-2.4 1.5-1.6.6 1 1.1.9 2.1-.3.9-1.1 2.6-1.5 5.4-1.3 3.1.2 4.2-.1 4.4-1.4.5-2.5 3.3-3.1 4.9-1.1.8 1 1.2 1.2.8.5-.3-.6-.1-1.2.4-1.2.6 0 1.1-.7 1.1-1.5 0-2.2 4-4.1 5.2-2.4q.9 1.5.3-.9c-.5-1.6-.2-2.2.9-2.2.9 0 1.6-.8 1.6-2s1.2-2.6 3-3.5c1.7-.9 3-2 3-2.6 0-1.7 4-5.5 4-3.8.1 1 .4.9 1.5-.5.8-1.1 2.1-1.6 3-1.3.9.4 1.5.1 1.5-.8 0-1.1 1.1-1.5 3.8-1.6 3.2 0 3.4-.1 1.5-.9-4.3-1.8-2.3-2.2 7-1.6 12.6.9 12.7.9 12.7 2.3 0 .7 1.6 1.5 3.5 1.9 2 .3 3.5 1.2 3.5 2 0 1.8.8 1.8 2.8-.2 1.1-1.2 1.7-1.3 2-.5s1 .7 2.4-.6c1.1-1 2.2-1.7 2.5-1.5s1.1-.7 1.7-1.9c.6-1.3 2.2-2.6 3.4-2.9 1.3-.3 2.3-.8 2.3-1.3-.1-.4-.1-2.1-.1-3.7 0-2.2-.5-3-1.7-3-1.6 0-1.5-.3.3-1.8 1.2-.9 2.6-2.6 3.2-3.7 1.1-1.9 1.1-1.9 1.2.2 0 1.6.4 2.1 1.6 1.6s1.3-.7.2-1.4c-1-.7-1-1.1 0-2.1s1.4-1 2.1.1c.5.8.7 2 .4 2.8-.4.9 0 1.1 1.1.7.9-.3 2.3-.1 3.1.6 1.2 1 1.5.9 1.5-.4 0-.9-.6-1.6-1.2-1.6-.7 0-.1-.8 1.5-1.8 1.5-.9 2.7-2.1 2.7-2.5 0-.5.9-2.2 2-3.7 1.9-2.7 2.5-2.9 9.3-2.9 4.7 0 8.3-.5 10.4-1.6 3.4-1.7 5.1-3.5 3.4-3.5-.5 0-1.1.4-1.3.9-.1.5-.9.2-1.7-.7-1.3-1.4-1.1-1.5 2.2-.9 2.1.3 3.9.1 4.3-.5.3-.5 1.5-.8 2.5-.5 1.1.3 1.7.2 1.4-.3-.3-.4 1-1 2.8-1.3 13.6-2.4 15.2-2.5 16.4-1.5.9.7 1.3.7 1.3 0 0-.6 1.9-1.5 4.3-2 2.3-.6 3.2-1 2-1.1-1.3-.1-2.3-.5-2.3-1 0-1.6 2-2.3 3.3-1.3 1.9 1.5 4.9 1.1 4.2-.6-.4-1 0-1.3 1.4-.9 1.1.2 4.1 0 6.8-.5 5.2-1.1 13.3-1.9 17.2-1.9 1.3.1 3.2-.6 4.1-1.4 1.6-1.4 1.8-1.4 2.3.5.3 1.1 1 2 1.7 2 .6 0 .8-.5.5-1-.4-.7.3-.8 2-.4 2.1.5 2.7.3 3.2-1.5.5-2.2 3.3-3 3.3-1 0 .8.5.8 1.5-.1.8-.7 2.2-1 3-.6 1.3.4 1.4.2.5-1.4-1.2-2.3-.6-2.4 3.9-.9 2.3.8 3.5.8 4.5 0 .7-.6 1.6-.8 1.9-.4.4.3.7.2.7-.4 0-.5 1.4-1 3-1.1 1.7 0 3 .4 3 .9 0 1.8 2.9.9 3.5-1.1.7-2.4 2.5-2.7 2.5-.5 0 1.2.5 1.3 1.8.7.9-.5 2.5-.8 3.5-.7 1 .2 1.6-.2 1.5-1-.2-.8.2-1.3.7-1.2.6.1.9.7.9 1.3-.1.6 1.6 1 4.2.8 3.3-.1 4.4.2 4.4 1.2 0 1.1.4 1.2 1.9.4 1.1-.5 2.9-1 4-1 1.2 0 2.1-.5 2.1-1.1 0-.7-.9-.9-2.3-.6-1.2.4-2.8.2-3.6-.2-.9-.6.4-1.1 4-1.4 3-.2 7.9-1.2 10.9-2.1s7.2-1.7 9.3-1.8c3.1-.1 3.8-.5 3.4-1.8-.4-1.4.3-1.7 3.2-1.8 2 0 5.7-.3 8.4-.6 2.8-.4 4.7-.2 4.7.4 0 1 13.3.6 15-.5.6-.4 1-.2 1 .3 0 1.4 5.8 3.3 6.5 2.2.3-.5-.7-1.1-2.2-1.3-2-.3-1.6-.4 1.5-.6 4.3-.1 5.1.6 3 2.7-.9.9-.9 1.2 0 1.2.7 0 1.2-.4 1.2-.8s.9-.8 2-.8 2 .3 2 .6 1.2.5 2.8.4c1.5-.1 3.3.3 4 .9.8.6 1.2.6 1.2-.2 0-.7 1.3-.9 3.5-.6 2.5.3 3.8 0 4.1-.9.8-2.2 4-2.5 7.1-.9 1.5.8 4.7 1.6 7 1.7 2.4 0 4.3.4 4.3.7 0 .4 1.2.6 2.6.6 1.5 0 3 .7 3.5 1.4.7 1.1 1.7.5 4.4-2.4 1.9-2.1 3.5-3.4 3.5-2.9 0 .4.6 1.7 1.4 2.8 1.4 1.8 1.4 1.8 1.3 0-.3-2.6 1.5-3 3.9-.8 1.9 1.8 4.3 1.8 5.5 0 .3-.4 1.5.2 2.8 1.3 1.7 1.6 2.6 1.8 3.4 1s.7-1.1-.3-1.1c-1.2 0-1.1-.3.1-1.6 1.9-1.8 6.9-1 6.9 1.2 0 .8.8 1.4 1.8 1.4 1.4 0 1.5-.2.2-1-1.2-.8-.9-1 1.4-1 2.5 0 2.8.3 2.4 2.8-.4 2.6-.2 2.8 2.4 2.4 2.4-.4 2.7-.1 2.1 1.3-.6 1.6-.2 1.7 2.7 1.1 1.9-.3 4.2-1.4 5.2-2.3 1.8-1.6 1.9-1.6 1.4 1.3-.4 2.5-.1 3.1 3 4.5 3 1.5 3.4 1.5 3.2.1-.2-.9.6-1.6 2.1-1.9 1.4-.2 3-.8 3.8-1.4 1-.9 1.3-.7 1.3.9 0 1.1-.6 2.3-1.2 2.5-.9.4-.9.6.1.6.8.1 2.3-.7 3.3-1.6 1.5-1.4 2.1-1.5 2.7-.4q.9 1.35 1.5.3c.8-1.3 6.6.5 6.6 2 0 .5.6.6 1.3.1 2.2-1.4 3.6-1.2 3 .5-.4 1-.2 1.3.5.8.7-.4 1.2-.1 1.2.9 0 .9.4 1.4.9 1 .6-.3 1.4.3 2 1.2.6 1.1 1.1 1.3 1.1.5 0-.7.5-1 1-.7.6.4 1-.5 1-1.9s.4-2.6.8-2.6c1.7 0 2.1 1.3 1.1 3.1-.7 1.5-.6 1.9.6 1.9.8 0 1.5.8 1.5 1.7 0 1.5.2 1.4 1.4-.3.8-1 1.8-1.6 2.2-1.2s.1 1.4-.5 2.2c-1.2 1.5-.5 2.4 1.7 2 .6-.1 1.7-.2 2.3-.3.5 0 .7-.6.4-1.1-.3-.6.1-1 1-1 .8 0 1.8.7 2 1.5 1.6 4.9 1.5 4.8 3.1 3.5 1.2-1.1 1.2-1.5.2-2.1-1-.7-1-.9 0-.9.7 0 2 .9 3 2.1.9 1.1 2.8 2.5 4.1 3 2.2.9 2.3 1.1.7 2.8-1.5 1.6-1.4 1.9.7 3.9 1.3 1.2 3.1 2.2 4 2.2s1.7.7 1.7 1.5-.6 1.5-1.2 1.5c-1.4 0 2.5 2.5 5.5 3.6 1 .4 1.6 1.3 1.3 2.1s-.2 1.2.3.9 1.2.1 1.5 1c.5 1.2.2 1.5-1 1-1.4-.5-1.5-.4-.5.8.9 1.1.9 1.6.1 2.1-.7.4-.9 1.6-.7 2.7.4 1.4-.7 3.2-3.7 6.2-3.5 3.5-4.1 4.7-3.4 6.5.4 1.2 1.2 1.9 1.8 1.6.6-.4.8-1.1.5-1.6-.9-1.3 1.6-1 4.5.5 2.3 1.3 2.6 1.2 4.1-1.4 1.2-1.8 2.5-2.7 4.1-2.6 1.4 0 2.4-.5 2.4-1.4.1-.8.2-2.3.3-3.3 0-.9.8-1.7 1.7-1.7 1.3 0 1.4-.3.5-1.4-.8-1-.8-2.1-.1-4 .5-1.5 1-4.2 1-6 0-1.9.6-3.9 1.3-4.5 1.9-1.5 2.1-9.1.3-9.1-2 0-2.6-2.3-1.1-4.4 1-1.4 1.8-1.5 3.3-.7 1 .5 2.9.7 4.2.4 2-.5 2.1-.3 1.5 1.8-.4 1.6-.3 2 .3 1 .7-1 1.1-1 1.7-.1.4.6 1.4.9 2.2.6s1.1-.1.8.4c-.3.6-1.4 1-2.3 1-1.5 0-1.5.2-.2 1s1.3 1.1.1 1.9c-.9.6-1.1 1.6-.7 2.7s.6 2 .4 2.1c-.8.7 4.1 3.1 7.5 3.7 2.1.4 4.1 1.4 4.4 2.2.3.7 1.4 1.4 2.4 1.4s1.9.6 1.9 1.4.7 1.6 1.5 2c.8.3 1.5 1.2 1.5 2.1 0 .8.5 1.5 1 1.5 2.2 0 2.5.2 3.7 2.3 1 1.8 1.2 1.9 1.3.4 0-3 1.5-1.8 1.6 1.3.1 1.7-.4 3-1 3-.9 0-1.4 4.8-.6 5.7.2.2.3.6.5 1 1.2 4.7 2.6 6.2 5.4 6.1 2-.1 2.8-.5 2.4-1.4-.3-.8 0-1.4.6-1.4s1.1-.4 1.1-1c0-.5-.7-.6-1.7-.3-1.1.4-1.4.3-.9-.5.4-.7 1.4-1.2 2.2-1.2s1.7-.8 2.1-1.8c.3-.9 1.4-2.8 2.3-4.2 1.3-1.8 1.6-4.1 1.4-8.3-.3-6.6-.9-7.8-2.9-7-.9.3-1.5-.1-1.5-1.1 0-.9-.3-1.6-.7-1.6-.5 0-1.7-2-2.8-4.5s-2.5-4.5-3.2-4.5-1.3-.5-1.3-1c0-.6-.6-1-1.4-1s-1.7-.7-2-1.5c-.3-.9-2-2.3-3.8-3.1-3.8-1.7-6.7-3.4-8.6-5.2-.7-.6-1.8-1.2-2.3-1.2s-.9-.7-.9-1.6c0-1.1-.6-1.4-2-.9-1.4.4-2 .2-1.8-.7.2-1-1.3-1.3-5.8-1.4-7.2-.2-8.4-.7-8.4-4 0-1.3-.6-2.5-1.2-2.5-1.7-.2-13.4-.8-17.1-.9-2.4-.1-2.7-.3-1.7-1.5 1.5-1.8-.1-2-1.9-.3-1 1.1-1.5 1-2.5-.5-.7-.9-2.5-1.7-4-1.7-3.1 0-6.7-1.7-7.9-3.6-.4-.7-1.4-1.1-2.2-.8-.8.4-1.5.1-1.5-.6 0-.8-1.1-1.1-3-.8q-3 .45-3-.9c0-.8-1.1-1.3-2.7-1.3-3.8 0-7.4-1.1-6.8-2 .3-.4-.6-1.6-2-2.6-2.1-1.6-2.2-1.9-.8-2.9.9-.7 1.9-3.3 2.3-5.8.6-3.8.3-5-1.2-6.7-1-1.1-2.4-2-2.9-2-.6 0-.9-.7-.5-1.5.3-.8.2-1.5-.3-1.5-.4 0-.8-1.4-.9-3.2-.1-2.3.2-2.8.8-1.8.8 1.2 1 1 1-.8 0-1.3-.6-2.2-1.5-2.2-3.1 0-1.3-1.7 2.8-2.6 2.5-.5 4.1-1.4 3.9-2.2-.3-1.5 1.4-1.6 2.3-.2.4.6.1 1.7-.5 2.5-1 1.2-.9 1.5.8 1.5 1.2 0 2.4-.5 2.7-1 .7-1.2 4.6-.3 5.6 1.3.4.5 2.1.7 3.8.4 1.6-.4 3.3-.2 3.6.3.9 1.4 6.2 1.2 6.8-.3.5-1.1 1.1 1.7.8 3.5 0 .5.6.8 1.5.8s1.4.6 1.2 1.2c-.3.7.2 1.9 1 2.7 1.2 1.2 1.5 1.2 2.3 0 .5-.8.5-1.5-.1-1.7-.5-.2-.7-.9-.4-1.7.4-.8-.3-1.5-1.8-1.8-1.3-.2 0-.5 2.8-.6 2.7 0 5.6-.7 6.2-1.3 1-1 1.5-1 2.2.1.7 1.2 1.1 1.2 2.3.2 1.1-.8 1.7-.9 2.2-.1.9 1.4-.3 6.3-1.8 7.2-1.7 1.1-1.6 5.2.3 7 1 .9 2 1.5 2.3 1.2.2-.2 1.9-.9 3.6-1.4 2.7-.7 3.1-.7 2.1.4-.8 1.1-.4 1.9 2.1 3.7 2.8 2 3 2.4 1.5 3.4-1.1.8-1.6 2.7-1.6 5.7s-.6 5-1.7 5.9c-1.4 1.2-1.2 1.5 2.3 1.9 2.4.3 3.8 1 3.6 1.8-.1.6.7 1.2 1.9 1.2 1.4 0 2.4-1 3.2-3 .7-1.8 1.7-2.8 2.4-2.6.7.3 1.2-.2 1.1-1.2-.3-2.2 2.1-10.5 3.2-11.2 1.3-.8-.9-10.4-2.7-11.8-.9-.7-1.7-2.5-1.8-4 0-1.6-.6-2.7-1.4-2.7-1.9 0-2.8-3.7-2.6-9.8.2-2.6-.1-4.7-.6-4.7s-.6-.6-.3-1.3c.3-1 3.3-1.2 12.2-1 14.4.3 15.1.3 13.5 1-2 .8-1.5 2.3.7 2.3 1.1 0 2-.5 2-1 0-.6.5-1 1.1-1 .5 0 .8.4.4.9-.3.6.4.9 1.5.8 2.1-.1 2.9-1.7.9-1.7-.8 0-.8-.5.1-1.5.7-.8 2-1.5 2.9-1.4 1.2 0 1.1.2-.4.9-1.8.8-1.8.9.5.9 1.4.1 3.1.5 3.8.9 1.7 1.1.4 4.2-1.7 4.2-4.8 0-1.6 4.4 3.9 5.3 1.9.4 4.5.9 5.8 1.3s2.2.2 2.2-.5c0-.6-1.1-1.3-2.5-1.7-1.4-.3-2.2-1-1.9-1.5.3-.6 1.5-.7 2.6-.3 1.6.5 2 .3 1.5-.9-.4-1 .2-1.7 1.5-2 1.1-.3 1.7-1 1.4-1.6-.4-.6-1.3-.8-2-.5-.8.3-1.7.1-2-.4-.9-1.4 3.6-2.3 5.1-1 .7.6 1.3 2.4 1.3 4 0 4.3 2.4 6.2 8.2 6.2 4.8.1 8.1-1.5 5.8-2.9-1.6-1-1.2-2.1 1.4-3.3 2-.9 2.7-.8 3.8.5 1.1 1.4 1 1.5-.9.9-2-.6-2.1-.5-1 1.8.7 1.4 1.7 2.4 2.2 2.2.6-.2 1.8.1 2.8.6 1.3.6 2.3.5 3.4-.4.9-.7 1.8-1.1 2-1 .3.2.7.1 1-.2.4-.3-.1-.6-1-.6-.8 0-1.8-.6-2-1.3-.4-.9-.8-.8-1.6.3-.9 1.2 9.473 3.298 9.473 1.398 0-2.5-8.073-5.099-5.273-2.999 2.1 1.6 2.2 4.2.1 5.4s-1.8 2.4.9 3.9c1.8 1 1.9 1.2.5 1.3-3.5 0-1.9 2.9 2 3.6 2 .4 4.2 1.1 4.8 1.5 1.4 1.1 6.5.8 8.2-.4 1.8-1.4 1.5-2.8-.5-2.5-2.1.4 1.9-.254 3.5-1.854.9-.9-3.6-3.246-3.2-1.546.4 1.2.9 2.2 1.3 2.3.3 0 1.7.2 3 .5 2.8.5 5.5-2.4 3.9-4.3-.5-.6-1.3-2.4-1.7-4-.4-1.5-1.2-2.8-1.7-2.8-1.7 0-3.5-1.7-4.4-4.1-.5-1.3-1.7-2.4-2.5-2.4-.9 0-1.3-.4-1-1 .3-.5-1.1-1.6-3.2-2.5-2-.9-4-1.9-4.3-2.4-.8-1.2-20.8-5.1-28.6-5.6-3.8-.3-6.9-.5-6.9-.6 0-.5-6.1-1-14.7-1.3-5.4-.1-9.8.1-9.8.6 0 1.3-2 .9-3.6-.6-1.4-1.5-9.9-1.6-12.2-.2-.7.4-1.8.3-2.6-.1-2-1.1-10.8-.4-10 .8.3.5-.2.9-1 .9s-1.8-.5-2.2-1.1c-.6-1-6-.7-11.9.7-1.2.3-3.1-.4-4.5-1.6-2-1.8-2.2-2.4-1.2-4 .7-1.2.8-2.1.2-2.5-.6-.3-1-2.4-1-4.6 0-2.8-.6-4.2-2-5.1-1.1-.7-2-2-2-2.9s-.8-1.6-1.7-1.6c-4.3 0-4.9-.3-3.3-1.4 1.2-.8 1.2-.9-.5-.7-2.3.2-6.5-2.2-6.5-3.8 0-.6-1.1-1.6-2.4-2.3-1.7-.9-2.6-2.5-3-5.3-.5-3.3-1-3.9-2.4-3.3-3.7 1.4-11.3 1.4-17.8-.2-3.8-.9-9-1.6-11.5-1.6-3.1 0-4.6-.4-4.7-1.4-.1-.7-.3-1.9-.4-2.6-.1-.8-2.3-1.3-6.2-1.5-8.7-.4-15.9-1.3-17.1-2.1-.5-.4-2.9-.9-5.3-1s-5.3-.5-6.5-1c-1.2-.4-3.3-.6-4.7-.5s-3.1-.3-3.9-1c-1.2-.9-1.3-.8-.7.3.7 1 .2 1.2-2.5.6-1.9-.4-4.6-1.4-6.1-2.1-1.5-.8-3.7-1.4-4.8-1.4-2 0-2-.1-.5-1.6.9-.9 1.4-2.3 1.1-3-.3-.8.1-1.4 1-1.4 2.2 0 3.6-4.5 2.3-7.7-1.1-3-4.2-6.3-5.8-6.3-.5 0-1.5-1.3-2.3-3-.9-2.1-1.8-2.8-3-2.5-.9.3-1.9.1-2.2-.4-.4-.6-1.3-.8-2-.5-.8.3-1.7.1-2.1-.5-.3-.6-1.7-1.1-2.9-1.1-1.3 0-2.9-.7-3.6-1.5-.8-1-1.7-1.2-2.9-.6-1 .6-3.7.5-6.6-.1-2.8-.5-6.3-1-8-.9-1.6 0-3.5-.5-4.1-1q-1.2-.9-1.8.6c-.3 1-1.1 1.3-1.8.9-.7-.5-2.8-.7-4.6-.5-1.8.1-4.4-.5-5.8-1.4s-3.2-1.4-4.1-1.1c-.8.3-2.4-.1-3.6-.9-2.6-1.8-4-1.9-3.4-.3m25.9 12.6c5 .1 7.5 1.1 10.2 3.7 1.2 1.3 2.3 1.4 5.3.6 5.1-1.3 10.5-.1 11.9 2.7 1 2.1 1.3 2.2 2.7.7 1.4-1.4 1.8-1.3 3.7.7l2.1 2.3-2.4.3c-1.8.2-2.6 1.1-3 3-.3 1.5-.2 2.9.1 3.2.4.3.8 1.7.9 3.2.1 2.3-.2 2.8-2.3 2.8-1.3 0-2.4-.6-2.4-1.3s-.3-.8-.8-.2c-.4.5-3.6 1-7.2 1s-9.2.3-12.4.7c-4.3.6-6.2.5-6.7-.4-.6-.9-1.1-.9-2.3.1-1 .8-2.8 1-5.3.6-2.1-.4-5.4-.7-7.4-.6s-5.5-.3-7.8-.8c-2.7-.6-4.3-.5-4.7.1s-3.6.9-8 .6c-4-.3-7.9-.1-8.6.3s-1.8.3-2.5-.3c-.8-.7-1.7-.7-2.5-.1-.7.5-4.2 1-7.8 1.2-7.9.2-10 .8-10 2.8 0 1.1-.5 1.3-1.7.8-3.3-1.4-12.5-1.8-13.2-.6-.4.6-4.5 1.3-9.7 1.5-4.9.2-9.7.7-10.7 1.1s-3 .5-4.6.2c-1.5-.3-3.3-.1-4 .6-.8.8-1.4.8-2.2 0-.6-.6-1.7-.9-2.4-.6-.7.2-1.5-.3-1.7-1.3-.3-1.5-.7-1.4-3.3 1-1.7 1.6-3.7 2.5-4.7 2.3-1-.3-2.2.2-2.7 1.1-.8 1.4-1.4 1.4-5.1.3-2.8-.8-4.5-.9-4.9-.3-.3.6-2.4.8-4.6.6s-5.4-.5-7.2-.7c-1.9-.2-3.1.1-3 .7.4 2.1-2.8 1.1-3.8-1.2-.5-1.2-1.4-2.2-2-2.2-.5 0-.4-.4.4-.9.7-.5 2.5-.4 4.2.3 2.4.9 3.2.8 3.9-.4.5-.8.9-2 .9-2.5 0-.6-.3-.4-.6.2-.8 2-2.3 1.5-2.3-.7 0-1.4.7-2 2.3-2 2.4 0 3 2.1 1.3 4.8-.4.7-.1 1.2.8 1.2 1.5 0 1.8-.5 2-4 .1-.8 1.2-1.7 2.5-1.8 1.3-.2 2.1 0 1.8.5-.4.5.4.8 1.6.7s3.2-.3 4.5-.3c1.5-.1 2.2-.7 2.2-2.1 0-1.3.7-2 2-2 1.1 0 2-.6 2-1.4s1.3-1.6 3-1.8c3.4-.5 7.3 2.3 6.4 4.6-.3.8-.1 1.7.5 2 .6.4 1.2-1.2 1.6-3.8.6-3.6 1-4.3 2.6-3.9 1.4.4 1.7 1.1 1.3 2.9-.4 1.5-.2 2.4.6 2.4.7 0 1-.7.6-1.5-.7-2 2.3-3.3 3.4-1.4.6.9 1 .6 1.5-1.4.5-1.9 1.4-2.7 2.8-2.7 1.9 0 2 .1.3 1.3-1.6 1.2-1.6 1.3.3 1.3 1.2 0 2.1-.6 2.1-1.2 0-.7.9-1.6 2-1.9 1.1-.4 1.8-1.1 1.5-1.6-1-1.5 2.4-2.3 5-1.1 1.8.9 2.5.8 2.9-.4.3-.8 1.3-1.4 2.2-1.4s2.2-.6 2.8-1.4c1-1.3 5.9-2.1 11.5-1.7 2 .1 2.1.3 1.1 1.6-.8.9-2.2 1.3-3.9 1-1.4-.3-2-.2-1.3.1.6.3 1.2 1.2 1.2 2s.6 1.4 1.4 1.4 1.6.6 1.8 1.2c.4 1 1 1 3.1.1 1.6-.8 2.7-.9 2.7-.3s.5 1 1.1 1 .9-.6.7-1.2c-.5-1.4.9-3.2 3.2-4.1 1-.3.6-.6-1-.7-2.3-.1-2.3-.2-.5-.9 2.5-1.1 3.5-.5 3.5 2 0 1 .5 1.9 1.1 1.9s.9-.7.5-1.5q-.45-1.5 1.2-1.5c1.5 0 1.5-.2.2-1-1.2-.7-.8-1 1.5-1.1 1.7 0 2.4-.3 1.8-.6-.7-.2-1.3-1.1-1.3-1.9 0-1.8 9.6-2 10.3-.2.3 1 .7 1 2 0 1.3-1.1 1.6-1 1.9.9.2 1.2.9 2.4 1.7 2.7s1.1 0 .7-.7c-.5-.7.3-.9 2.6-.4 1.8.3 3.5.7 3.7.9s1-.3 1.8-1.1c1-1.1 2-1.2 3.3-.5s1.9.6 2.4-.5c.6-1.7 5.6-2.1 5.6-.5 0 .5-.4 1-1 1-.5 0-.7.7-.4 1.5.8 2.1 2.1 1.9 3.5-.7 1-1.8.8-2.4-.6-3.4-1-.8-2.2-1.1-2.6-.8-.5.3-.9 0-.9-.6s1.6-1 3.9-.8c2.2.1 4.6-.4 5.5-1.1 1.1-.9 2-1 3.6-.1s2.2.8 2.7-.5c.3-.9.9-1.2 1.2-.7s2.7 1 5.3 1m-26.5 1.8c-.3.3-1.2.4-1.9.1-.8-.3-.5-.6.6-.6 1.1-.1 1.7.2 1.3.5m-7.7 2.4c0 .5-.6 1-1.4 1s-1.8-.5-2.1-1c-.3-.6.3-1 1.4-1 1.2 0 2.1.4 2.1 1m-40 1c0 .5-.4 1-1 1-.5 0-1-.5-1-1 0-.6.5-1 1-1 .6 0 1 .4 1 1m114 10.1c0 .5-.4.9-1 .9-.5 0-1 .7-1 1.6 0 .8-.5 1.2-1.1.9-.6-.4-.8-1.3-.5-2.1s.1-1.4-.4-1.4c-.6 0-1-.4-1-.9 0-.4 1.1-.6 2.5-.3 1.4.2 2.5.8 2.5 1.3m-213.7 21.5c-.4 1 0 1.2 1.3.7 1.2-.4 1.5-.3 1 .5-1.1 1.8-3 1.4-4.3-.7s-.8-3.2 1.2-2.4c.8.2 1.1 1.1.8 1.9m6.7.4c0 .5-.2 1-.4 1-.3 0-.8-.5-1.1-1-.3-.6-.1-1 .4-1 .6 0 1.1.4 1.1 1m9.7 1.2c-.3.8-.6.5-.6-.6-.1-1.1.2-1.7.5-1.3.3.3.4 1.2.1 1.9m222.8 1.8c.3.5-.1 1-1 1s-1.3-.5-1-1c.3-.6.8-1 1-1s.7.4 1 1m33.2 5.2c1.6 2 1.2 5-.4 4.3-.8-.3-1.7-.5-1.9-.5-.3 0-.2-.5.1-1 .4-.6.1-1.7-.5-2.5-1-1.2-.9-1.5.3-1.5.8 0 1.9.6 2.4 1.2m6 .5c.3-.3 1.8 0 3.4.8 1.9 1 2.6 2 2.2 3.1-.3.8-1.2 1.3-1.9 1-.8-.3-1.4.1-1.4 1 0 .8-.5 1.2-1 .9-.6-.4-.8-1.1-.5-1.6s-.1-.6-.9-.3c-1.1.4-1.3 0-.9-1.5.3-1.4 0-2.3-1.1-2.7-.9-.3-1.6-1.1-1.6-1.6 0-.6.7-.5 1.5.2.9.7 1.8 1 2.2.7m9.5 3.5c.2.6 1.8 1.1 3.6 1 4.4-.1 4 1.1-.8 2.6-5.4 1.7-6 1.6-6-1.1 0-3.4 2.3-5.2 3.2-2.5m-140.2 1.8c.3.5 2 .8 3.8.8 1.8-.1 4 .6 5 1.5 2.4 2.2 4.2 2.2 4.2.1 0-.9.8-2.3 1.8-3 2.7-2.1 3.5-1.6 1.2.8-2.1 2.3-2.6 3.8-1.1 3.8.5 0 1.3-.9 1.6-2.1.5-1.5 1.3-1.9 2.7-1.6 1.1.3 2.1 0 2.5-.9.7-1.9 2.3-1.8 2.3.2 0 1 .5 1.4 1.5 1 .9-.3 2.4.3 3.5 1.4s1.5 2 .9 2c-.8 0-.8.5.1 1.5 1.8 2.1-.9 2.9-6.8 2-6.1-.9-8.2-.9-10.8 0-1.4.4-2.7.1-3.8-1-.9-.9-1.6-1.3-1.6-.8s-1.1 1-2.4 1.1c-1.7.1-2.7-.5-3.1-1.9-.7-2-.7-2-2.1-.2-.9 1.2-1.6 1.4-2.1.7-.5-.6-1.6-1.3-2.5-1.7-1.8-.6-2.4-3.7-1.1-5.1.9-.8 5.6.2 6.3 1.4m42.3-.3c-.5 1.3-.2 1.5 1.8 1 3.3-.9 9.9 1.2 10 3.2 0 1.3.2 1.2.8-.2.4-1 1.1-1.8 1.6-1.8s1.2.8 1.6 1.8c.7 1.5.8 1.6.8.1.1-2.8 5.6-3.3 8.3-.8 1.5 1.4 3 1.9 4.3 1.5 4.5-1.5 6.5-1.7 6.5-.8 0 .6 3.7.8 8.9.7 7.1-.3 9-.1 9.5 1.1.3.8 1.2 1.5 2.1 1.5 1.8 0 1.9 1.2.3 2.8-1 1-1 1.5.2 2.2.8.5 1.8 1 2.2 1 .9 0 3.5-2.7 4-4.1.3-.8 1.2-.8 3.3.3 1.7.8 3.9 1.3 5 1 1.6-.3 1.8-.1.8.9-.7.7-1.3 1.9-1.3 2.6 0 1.9 2.7 1.6 3.8-.4.7-1.1 1.5-1.4 2.8-.8 1.1.5 2.2.7 2.7.7.4-.1.7.2.7.8 0 .5 2.4.9 5.3.9 5.3-.1 12.7 2.3 12.7 4.2 0 .6.9.8 2 .4 3.3-1 6 .4 6 3.1 0 2.8-3.4 3.4-4.4.8-.4-1.1-1.4-1.4-3.3-1-1.6.3-3.5.2-4.3-.4-.8-.5-1.2-1-.8-1 1 0-2.4-4-3.4-4-.5 0-.8.8-.8 1.7 0 3.7-12.1 6.1-13.4 2.8-.4-1.2-1.6-1.4-5.7-.9-4.4.5-5.1.4-4.6-.9.4-1.1 0-1.3-1.4-1-1 .3-1.9 1-1.9 1.5s-.4.7-1 .3c-.5-.3-.7-1.2-.4-1.9.7-1.8-1.6-3.2-2.6-1.7-.9 1.5-2.9 1.6-10.3.7-4-.5-6.3-.3-7.3.5s-1.7.9-2.8 0c-.7-.6-2.1-.9-3-.5-.9.3-1.6.1-1.6-.4 0-.7-2-.8-5.5-.5-3.3.4-6.6.1-8.4-.7-1.7-.7-4.9-1.3-7.3-1.4-3.7-.1-4.5-.5-5.7-3.1-1.1-2.2-1.6-2.6-1.9-1.3-.5 2.6-3.2 3-6.7.8-1.7-1.1-4.3-2.1-5.6-2.4-2-.3-2.4-.9-2.1-3.5.1-1.7-.3-3.1-.9-3.1-.5 0-.7-.5-.4-1 .9-1.4 4.8-1.3 6.3.2 1 1 1.6.7 2.8-1 1.8-2.6 2.6-2.9 1.7-.5m-56.3-.2c0 .3-1 1-2.2 1.5-2.1.9-2.1 1-.3.9 3.6-.2 4.6.1 4 1.1-.3.5-.1 1 .4 1 .6 0 1.1-.6 1.2-1.3 0-.6.4-.2.9 1 .5 1.3 1.5 2.3 2.2 2.3.8 0 .6.5-.4 1.1-1.2.7-2.4.6-3.7-.1-1.1-.5-2.9-1-4-1-1.2 0-2.1-.7-2.1-1.5s-.8-1.5-1.9-1.5c-1 0-2.5-.8-3.2-1.7-.8-.9-.9-1.4-.4-1.1.6.4 1.6.3 2.3-.1 1.4-.8 7.2-1.3 7.2-.6m-16.6 1.4c.3.5-.5 1.1-1.9 1.3-1.7.4-2.5.1-2.5-.8 0-1.5 3.6-1.9 4.4-.5m-108.4 2.1c0 .5-.5 1-1.1 1-.5 0-.7-.5-.4-1 .3-.6.8-1 1.1-1 .2 0 .4.4.4 1m286.9.3c-.9.7-1.8 1.7-2 2.4-.3.8-.9.9-1.9.3-1.3-.8-1.2-1.1.5-2.4 1.1-.9 2.7-1.5 3.5-1.5 1.3 0 1.3.1-.1 1.2m2.1 1.4c0 .5-.4 1.5-1 2.3-1.1 1.8-2.5.7-1.7-1.5.6-1.5 2.7-2.1 2.7-.8m10 2.5c.1 2.3.1 2.3 1.6.3 1-1.3 1.7-1.6 2.2-.9.4.6 1.9 1.4 3.3 1.7 2.5.6 4.8 4.7 2.7 4.7q-1.05 0 0 1.2c.8 1 .2 1.3-2.6 1.2-3-.1-3.8-.6-4.3-2.5l-.7-2.4-.2 2.5c-.2 2-.3 2.1-.7.6s-.7-1.6-1.4-.5c-.6 1-.9.5-.9-1.8 0-1.7-.3-3.8-.6-4.7s-.1-1.6.5-1.6 1.1 1 1.1 2.2m-330 3.8c0 .5-.7 1-1.6 1-.8 0-1.2-.5-.9-1 .3-.6 1-1 1.6-1 .5 0 .9.4.9 1m-5 2c2.6 2.6 2.5 2.7-.9 2.2-2.2-.3-2.8-.8-2.4-2.3.7-2.4.8-2.4 3.3.1m-9 2.7c0 2.4-1.2 3.9-3 3.8-.8 0-1.8.4-2.2.9-.4.6-1.6.6-3.2-.2-1.6-.7-2.6-.8-2.6-.2s.6 1 1.3 1c.6 0 .3.7-.8 1.6-1.2.9-3 1.2-4.7.8-2.1-.4-2.8-.2-2.8 1 0 .9-.4 1.6-1 1.6-.5 0-1.2 1.1-1.6 2.5-.7 2.7-1.5 3-4.5 1.5-1.3-.7-1.9-.7-1.9 0 0 .5-.8 1-1.8 1s-2.4.6-3.1 1.2c-.8.8-1.1.8-.8.2.7-1.1-3.2-2.8-4.2-1.9-.2.3.1.5.7.5.7 0 1.2.4 1.2 1 0 .5-.7 1-1.6 1-.8 0-1.2.4-.9 1 .3.5-.7 1.2-2.2 1.5-4.9 1.1-7.2 2.6-6.6 4.4.4.9.3 1.3-.1.9-.5-.4-1.8-.3-3 .1-1.1.5-3.4 1.1-4.9 1.5-2.5.6-2.8.4-2.5-1.6.2-1.5-.2-2.3-1.2-2.3-.9 0-1.6 1.2-1.8 3-.5 3.7-1.9 5.5-4.3 5.5-1.1 0-1.9.4-1.9 1 0 .5-.7 1-1.5 1s-1.5.7-1.5 1.5c0 .9-.6 1.2-1.5.9-.9-.4-1.5 0-1.5 1 0 2.6-10.9 6.9-11.1 4.2 0-.6-.4-.2-.8.9s-1.7 2-2.7 2-1.9.7-1.9 1.5-.6 2.1-1.2 2.8c-.7.7-1.3 2-1.3 2.8 0 2.6-2.7 1.3-4.6-2.1-1.6-3.2-.6-5.1 3.6-6.8 3-1.1 3.8-2 3.4-3.1-.5-1.2-.2-1.5 1.2-.9 1.1.4 1.5.3 1.1-.4-.9-1.4 1.9-4.3 3.9-4.3.8 0 1.4-.5 1.4-1 0-.6 1-1 2.3-1 1.8 0 1.9-.2.7-1-1.1-.7-.7-1 1.8-1 2 0 3.5-.6 3.8-1.5.4-.8 1.2-1.5 2-1.5s1.4-.5 1.4-1c0-.6.5-1 1.1-1 .5 0 .7.4.4 1-.8 1.3.6 1.3 3.9 0 1.4-.5 2.6-1.7 2.6-2.6 0-1.2.7-1.5 2.5-1.2 1.4.3 3-.1 3.6-.8 1.3-1.6 3.9-1.9 3.9-.4 0 .5.5 1 1 1 .6 0 1-.4 1-1 0-2.1 3.6-5 6.1-5 1.5 0 2.9-.5 3.1-1.1.2-.5 1.8-1.1 3.6-1.1 2-.1 3.2-.6 3.2-1.5 0-.7.9-1.3 2-1.3 1.3 0 1.8-.5 1.4-1.5-.5-1.1.1-1.5 2.4-1.5 1.6 0 3.5-.7 4.2-1.5.7-.9 2-1.3 3-1 .9.3 2.8-.3 4.1-1.4 2.2-1.7 2.8-1.8 6.3-.6 3.8 1.3 3.8 1.3 3.3-1.2-.4-2.3-.2-2.5 2.5-1.9 1.8.3 2.7.2 2.3-.4-.3-.6-.1-1 .4-1 .6 0 1.1.8 1.1 1.7m142 5.3c0 .5-.4 1-1 1-.5 0-1-.5-1-1 0-.6.5-1 1-1 .6 0 1 .4 1 1m-36.5 1c-1.9.8-1.9.8.5 1.9s2.4 1.1-.5.6c-2.4-.5-2.8-.4-1.7.6 1.7 1.8 1.5 2.9-.7 2.9-1 0-2.1-.9-2.4-2s-.1-1.8.3-1.5c.5.3 1.1-.4 1.5-1.5.4-1.2 1.5-2 2.8-1.9 2.1 0 2.1.1.2.9m9.1.5c.4.8 1.1 1.2 1.6.9.6-.4.9-.1.6.7s-1.1 1.5-1.9 1.6c-2.2.4-4.3-1.3-3.6-3.1.8-2 2.6-2.1 3.3-.1m-16.1 4.1c3.7 2.4 3.2 4.2-1.2 4.1-3.5-.1-5.2-1-5.3-3 0-.4.7-.7 1.5-.7s1.5-.5 1.5-1c0-1.4.7-1.3 3.5.6m-9.5.3c0 .6-.5 1.3-1.2 1.7-.6.4-.8.3-.4-.4.3-.5 0-1.3-.6-1.5-.8-.3-.6-.6.5-.6.9-.1 1.7.3 1.7.8m-3.7 2.1c2.4 2.8 1.4 4-3.6 4.1-3.4.1-3.8.2-1.7.8 2.3.7 2.2.8-1.4 1.5-4.3.8-4.1.9-5-2.2-.6-1.7-.3-2.2 1.1-2.2s1.5-.2.4-.9c-.9-.6-1-1.1-.2-1.5.5-.4 2-.1 3.1.6 1.8 1.1 2.3 1 3.1-.5 1.3-2.2 2.1-2.2 4.2.3m-15.8 3.6c1.3.3 2.6 1.2 2.9 1.9.7 1.8-1.7 3.7-3.7 2.9-.9-.3-2.6.1-3.8 1-1.3.8-3.2 1.3-4.5 1-1.7-.4-2.3 0-2.8 2-.6 2.4-3.6 3.8-3.6 1.6 0-.6-.4-1-1-1-.5 0-1 .7-1 1.5s-.8 1.5-1.9 1.5c-2.9 0-8.1 2.1-7.6 3.1.3.4-1.7.6-4.5.3-2.7-.2-5-.1-5 .4 0 1.2-4.6 3.2-7.5 3.2-1.3 0-2.7.5-3 1-.4.6-1.5.8-2.5.5s-2.1-.1-2.5.4c-.3.6-2.3 1.8-4.3 2.7-2 .8-4.5 2-5.4 2.5-1 .5-2.8.9-4.2.9-1.3 0-2.9.7-3.6 1.5s-1.8 1.5-2.5 1.5-1.8.6-2.4 1.4c-.7.9-2.4 1.2-4.5.9-2.8-.4-3.4-.1-4 1.9-.5 1.4-.9 1.8-1.3 1-.7-1.8-2.3-1.5-2.3.5 0 1.3-.3 1.4-1.2.5-2.1-2.1-5.8-1.4-6.8 1.4-.6 1.4-1.4 2.2-2 1.9-.5-.3-1-.1-1 .4 0 .6-.9 1.1-2 1.1s-2 .4-2 .9-1.2 1.1-2.7 1.3c-1.6.2-2.7.8-2.6 1.4.2 1.1-1 1.4-5.7 1.6-1.4 0-1.9.3-1.2.5 1.5.6 1.6 2.3.1 2.3-.7 0-1.9.8-2.8 1.9-.9 1-2.5 2.1-3.6 2.3s-1.9 1-1.7 1.7c.2.9-.3 1.1-1.3.8-1-.5-1.5 0-1.5 1.3 0 1.1-.6 2-1.2 2.1-3.4.2-5.1.9-6.8 2.9-1 1.2-2.3 1.9-2.9 1.6-.5-.4-1.2-.2-1.6.4-.3.5-1.5 1-2.5 1-1.1 0-2.6 1.2-3.5 3-.8 1.6-1.9 2.9-2.3 2.9-2-.3-3.2.2-3.2 1.5 0 .8-1.3 2.3-2.9 3.2-1.7 1-2.8 2.1-2.5 2.6.3.4 0 .8-.5.8-.6 0-1.1-.7-1.1-1.5 0-1-1-1.5-2.6-1.5-2.2 0-2.5-.2-1.4-1.5.7-.8 2.1-1.5 3.1-1.5 1.4 0 2.1-.9 2.6-3 .3-1.7 1.2-3 1.9-3 .8 0 1.4-1 1.4-2.2 0-1.9.1-2 1.8-.5 2.5 2.2 4.6-.3 3.7-4.5-.5-2.1-.4-2.8.4-2.4.7.5 1.1-.1 1.1-1.4 0-1.2.4-1.9 1-1.5.5.3 2.1.2 3.7-.1 2.5-.7 2.5-.8.8-1.5-1.8-.7-1.8-.8-.2-.8 1-.1 1.5-.5 1.2-1.1-.3-.5 1-1.6 2.8-2.4 3.7-1.5 5.6-3.5 3.5-3.7-.7-.1.1-.4 1.7-.8 1.7-.4 3.3-.2 3.7.4.4.5.8-.2.8-1.7 0-2.7 1.9-5.1 2.1-2.6 0 .7.5.4 1-.8.6-1.2 2.7-2.5 5.1-3.1 3.5-.9 4.3-.8 5.8.7 1 1 2.1 1.6 2.4 1.2.3-.3.6.2.6 1.1s.5 1.7 1.1 1.7c.7 0 .8-.7.4-1.8-1.1-2.6-1.1-5.6 0-6.1.6-.2 1.5-1.1 2.2-2 1.1-1.4 1.2-1.4 1.3.1 0 1 .5 1.8 1 1.8.9 0 1.5-2.9 1.1-5.8-.2-.8.4-.7 1.7.5 1 1 1.6 2.7 1.4 3.8-.4 1.6-.1 1.5 1.7-.8 1.2-1.5 2.8-2.7 3.6-2.7.7 0 1.6-1.1 1.9-2.5.7-2.6 5.9-6 7.6-5 .6.3 1 .1 1-.5s.6-1 1.3-.9c2 .4 6.7-1.2 6.7-2.3 0-.5.8-.8 1.8-.6.9.1 2.7-.7 3.9-1.9 1.3-1.3 2.9-2 3.7-1.7s2.5-.1 3.8-1c1.2-.9 1.7-1.6 1-1.6-.6 0-1.2-.4-1.2-.9 0-1.3 8.2-1.9 10.8-.8 1.6.8 2.6.7 3.4-.1.7-.7 2.2-1.2 3.5-1.2 1.4 0 2.3-.6 2.3-1.5s1-1.5 2.6-1.5c1.4 0 2.3.4 2 .8-.3.5.1.9.9.9s1.2-.4.9-.9c-.3-.4.7-.8 2.1-.8 1.5 0 3.6-.5 4.8-1.2 3.4-1.8 5.7-2 5.7-.3 0 1.8.5 1.8 3.1.4 1.1-.5 1.7-1.3 1.5-1.7-.7-1.2 3.7-1.2 5.1-.1 1.7 1.5 5.6.1 4.9-1.7-.3-.8-.2-1.2.4-.9.5.3 1.5-.1 2.2-.9 1.1-1.2 1.3-1.2 1.6 0 .2.8 1.4 1.7 2.7 2m22.2-1c-.3.3-1.2.4-1.9.1-.8-.3-.5-.6.6-.6 1.1-.1 1.7.2 1.3.5m128.3 2.6c.1 2.1.2 2.1 1.1.5 1.2-2.1 2.9-2.2 2.9-.2 0 .9.6 1.2 1.7.8 1.3-.5 1.5-.2 1 1.1-.4 1-.1 1.9.8 2.3 2 .7 0 3.3-2.6 3.3-1.3 0-1.7.5-1.2 1.7.5 1.3.2 1.5-1.5 1.1-1.3-.4-2.3 0-2.6.9-.4 1.1-1 1.1-2.6.3-1.1-.6-2.5-.8-3-.5s-2.6.8-4.7 1.1c-2 .2-4 .8-4.3 1.2s-2.2.8-4.2.9c-2.1.1-4.8.3-6 .4-1.3.1-4 1.5-6.2 3.2-3.1 2.4-3.6 2.6-2.7.9 1.5-2.9 0-3.5-4.3-1.7-1.9.8-4.5 1.5-5.6 1.5s-1.9.6-1.8 1.2c.2.9-1 1.3-3.4 1.4-2.1 0-4.8.5-6 1.1-2.7 1.3-16 3.7-20.3 3.6-1.6 0-3.2.2-3.5.6-1 1.2-6.1 3.1-8.5 3.1-1.4 0-2.5.5-2.5 1.1 0 .7-.9.9-2.1.6-2.7-.7-8 .3-7.4 1.4.3.4.1 1-.4 1.4-.5.3-1.5-.3-2-1.2-1-1.7-1.2-1.7-2.5-.1-.9 1.3-2.8 1.8-6.5 1.8-2.8 0-5.1.4-5.1.9 0 .4-2 1.1-4.5 1.4-2.5.4-5.7 1.4-7.1 2.4-1.7 1-5.3 1.8-9.8 2.1-3.9.2-7.4.9-7.7 1.4-.4.6-1.2.7-1.8.3-.7-.4-1.8-.1-2.6.5s-1.9.9-2.4.5c-.6-.3-2.4.1-4 1-1.7.8-4.1 1.5-5.6 1.5-1.4 0-2.5.5-2.5 1.1 0 .7-1.1.9-2.7.6-1.5-.3-3.7.1-4.9 1-1.3.8-2.7 1.2-3.2.9-.6-.3-2.9.1-5.3.9-2.4.9-6.5 1.8-9.2 2.1-2.7.2-5.9 1.2-7.3 2-1.5 1.1-3.3 1.4-5 1-2.1-.6-2.5-.4-2.1.7s-.4 1.4-3.6 1.4c-3-.1-5.1.6-7.4 2.2-1.9 1.4-4 2.2-5.2 1.8-1.1-.2-2.2 0-2.3.5-.2.6-1.7 1-3.3 1-3.1 0-7.9 2.1-10.3 4.4-.7.8-2.1 1.5-3 1.5-.9.1-3 .2-4.6.3-1.5.1-3.3.9-4 1.7-.6.9-3 1.6-5.9 1.8-2.7.1-6 .6-7.4 1.2-1.5.5-4.1 1-5.9 1.1s-3.5.7-3.8 1.4-1.8 1.3-3.3 1.3-4.3.3-6.1.7c-2.8.5-3.2.4-3.2-1.5 0-1.2.5-1.9 1-1.6.6.3 1 .1 1-.4 0-.6.7-1.1 1.6-1.1 2.1 0 4.7-2.7 3.4-3.5-1.8-1.1-.1-2.2 2.7-1.9 1.6.2 2.2.1 1.6-.2-2.3-1-1.4-2.2 2.5-3 2-.4 4.2-.8 4.7-.8.6-.1 1.4-.7 1.8-1.4.4-.6 2.2-1.2 3.8-1.2 2.4 0 3-.4 2.7-1.8-.2-.9.7-2.8 2-4.1 2.1-2.1 2.7-2.3 4.5-1.2 1.5 1 2.1 1 2.7.1.4-.6.9-1.1 1.1-1s1.7-.4 3.2-1.1c1.8-.8 2.3-1.5 1.6-2-.7-.4.1-1 1.9-1.4 2.2-.4 2.9-1.1 2.5-2.1-.4-1.2.2-1.4 3.3-1 5.1.6 8.8-.2 11.1-2.3 2.2-2.1 2.2-2.1 7.6-2.2 2.3-.1 3.4-.3 2.5-.6-3.4-.9-1.9-2.5 1.7-1.9 2.8.6 3.5.4 3.5-.9 0-.9.7-2.3 1.5-3.1.9-.9 1.5-1.1 1.5-.4 0 .6.5.8 1.1.5.6-.4 1.3.3 1.6 1.4.5 1.9.7 2 1.7.6.7-.9 1.6-1.6 2.1-1.5.6.2 1.7.2 2.5.1 1.2-.1 1.3-.3.1-1-1.9-1.2-.5-3 1.8-2.4 1.2.3 2-.2 2.4-1.6.5-2.1 2.7-3 2.7-1.1 0 .5.5 1 1 1 .6 0 1-.6 1-1.4 0-1.6 2.5-2.5 9.5-3.2 2.8-.3 5.5-1.2 6-1.8.6-.7 2-1.8 3.1-2.4 1.8-1 2.3-.9 2.7.8.6 2.4 4.4 1.6 5.3-1.2.4-1.5 1.2-1.8 2.9-1.4s2.4.1 2.8-1.5 1.1-2 2.6-1.6c1.2.3 2.2-.1 2.5-.9.8-2.2 4.7-1.7 5.3.6.5 1.8 2.5 3 2.2 1.2-.4-2.3.4-3.2 2.6-3.2 1.4 0 2.5-.4 2.5-1 0-1.1 3.2-.1 4.1 1.3.4.5 1.8.1 3.3-.8 2.3-1.5 3-1.6 5.2-.5 2.2 1.2 2.7 1.1 5.7-1.6 5.1-4.7 8.4-6.1 10.9-4.5 1.8 1.1 2.3 1.1 3.2-.1 1.7-2.2 4.4-2.9 5-1.2.3.9 1.4 1.3 2.3 1.1 1-.3 3.1-.8 4.6-1.1 1.5-.4 2.5-1.1 2.2-1.6-.7-1.2.8-1.9 5.2-2.4 1.8-.2 4-1 5-1.7 1.5-1.2 1.6-1.2 1 .3-.7 2 1.7 2.6 2.9.7.6-1 4.9-.7 9.7.7 1.1.4 1.7 0 1.7-1 0-1.2 1-1.5 4.5-1.3s4.4.5 4 1.7c-.3.9.1.7 1-.4.8-1.1 1.5-1.4 1.5-.8 0 .7.7 1.2 1.5 1.2s1.5-.5 1.5-1.2c0-.9.3-.9 1.2 0 1.6 1.6 5.5 1.5 6.5-.2.7-1.2 1.2-1.2 3.3-.1 1.9 1.1 2.1 1.4.8 1.5-2.8 0-2.1 1.7.7 1.7 1.5 0 2.5-.5 2.5-1.3s.6-1.3 1.3-1.2c.6.2 1.1-.5.9-1.5-.5-3 4.1-2.1 6.6 1.3 1.9 2.6 2.5 2.8 4.2 1.8 1-.7 1.7-1.5 1.4-2-.6-.9 2.3-1.5 10.8-2.2 5.3-.4 6.6-.2 6.2.8-.3.7.2 1.6 1.2 2 1.3.5 1.5.2 1-1.9-.4-1.4-.2-2.5.4-2.5.5 0 1 1 1 2.2m167.2 4.3c2.6 3 2.2 3.8-1.4 3.1-1.8-.4-4.3-.7-5.5-.6-1.2 0-2.5-.5-2.8-1-.3-.6-1.5-1-2.5-1-1.2 0-1.7-.5-1.4-1.3.8-2.3 11.5-1.7 13.6.8m-145.9.2c-.7.2-1.9.2-2.5 0-.7-.3-.2-.5 1.2-.5s1.9.2 1.3.5m214.7 2.4c0 .5-.7.9-1.6.9-1.1 0-1.4.6-.9 2.2.5 1.8.4 2-.4.8-.7-1-1.1-1.1-1.1-.3 0 .7-.7 1.3-1.5 1.3-1 0-1.5-1-1.5-2.9 0-2.6.3-2.9 3.5-2.9 1.9 0 3.5.4 3.5.9m-26.6 2.8c-1.2 1.2-2.1 1.4-2.6.7-.8-1.2.9-2.6 3.1-2.6 1.1 0 .9.5-.5 1.9m-91.4.1c0 .5-.7 1-1.6 1-.8 0-1.2-.5-.9-1 .3-.6 1-1 1.6-1 .5 0 .9.4.9 1m-237 2.5c0 .8-.4 1.5-.9 1.5s-1.4-.7-2.1-1.5c-1-1.3-.9-1.5.9-1.5 1.2 0 2.1.6 2.1 1.5m176 5.5c0 1.6-.7 2-3.4 2-1.9 0-3.8.5-4.2 1.1-.4.8.7.9 3.7.6 2.4-.3 4.7-.6 5-.6.4-.1.9-1 1.2-2.1.4-1.5 1-1.8 2.4-1.3 1 .3 2.1 1 2.4 1.5s2 1 3.7 1.1c2.1.1 3.4.8 3.8 2 .6 1.8.6 1.8 2 0 1.7-2.2 1.8-3.7.2-2.7-.7.4-.8.3-.4-.4 1.1-1.8 2.6-1.4 2.6.7 0 1.1.5 2.3 1 2.6.6.3 1.1 1.6 1.1 2.8.1 1.7.2 1.8.6.4.5-1.8 2.2-2.1 6-1.1 1.3.4 2 1.1 1.6 1.6-.3.6 0 .8.8.6.8-.3 1.3-1.2 1.1-2.2-.4-2.2.3-2 3.1.8 3.1 3.1 4.1 5.6 2.2 5.6-.8 0-1.5-.7-1.5-1.5 0-2.5-1.9-1.7-2.6 1.1-.8 3 1.2 5.7 2.2 3.1.9-2.5 2.4-2 2.4.8 0 1.4.5 2.5 1.1 2.5s.9.7.5 1.5c-.3.8-.1 1.5.3 1.5.5 0 .7 1 .3 2.2-.4 1.5-.2 1.9.7 1.3.7-.4 1.1-1.8.8-3.1-.6-3.1 1.9-3.9 3.4-1.2.9 1.7.9 2.3 0 2.6-.6.2-1.8 1.1-2.7 1.9-2.1 2.2-15.4 2.2-18.7 0-1.4-.9-4.7-1.7-7.3-1.8-2.7-.1-6-.7-7.4-1.2s-6.5-.9-11.5-.9c-4.9 0-9.4-.3-10-.8-.5-.4-3.7-.7-7-.6s-7.1-.2-8.5-.7-3.4-1.3-4.5-1.7c-3.6-1.5-6.3-1.8-7.6-.9-.7.4-1.8.4-2.4-.1s-5.1-.9-10-1c-29.7-.6-28-.6-27.7 1.2.2 1-.2 1.8-.8 1.8-.5 0-1-.3-1.1-.8 0-.4-.2-1.5-.4-2.4-.7-4 5.8-7.7 9.9-5.6 1.3.7 2.1.6 2.6-.2.4-.6 1.7-.9 3.1-.5 1.8.4 3.1-.2 5.3-2.5 2.3-2.4 3.5-3 5.3-2.5 1.4.3 3.1.1 3.9-.6 1.1-.9 1.7-.9 2.8 0 .8.7 3.9 1.4 6.8 1.6 4.8.4 9.9 1 10.6 1.4 1 .5 1.6-.3 1.4-1.9-.2-1.3.2-2 1.2-2 .9 0 1.6.7 1.6 1.5 0 1.7 1.6 2 2.5.5.3-.6 1.1-1 1.6-1 .6 0 .8.4.5.9s.8 1.4 2.6 2c3.8 1.3 3.8 1.3 3.8 0 0-.5-.5-.7-1-.4-.6.4-1-.5-.8-2.2.2-2.4.7-2.8 3.2-3 1.7 0 2.5.1 1.9.4-1.5.5-1.8 3.3-.4 3.3.5 0 2.2-.7 3.7-1.5 1.6-.8 2.2-1.5 1.4-1.5-3.1-.1 1.4-2 4.7-2 1.7 0 3.5-.5 3.8-1 1-1.6 1.5-1.2 1.5 1m203.1.3c-.1 1.2-1.5.9-1.9-.4-.3-.6.1-1 .8-.8.6.3 1.1.8 1.1 1.2m-239.4 3.3c-.3.3-1.2.4-1.9.1-.8-.3-.5-.6.6-.6 1.1-.1 1.7.2 1.3.5m-49.4 10.4c.4 1.5 0 2-1.4 2-1.2 0-1.9-.7-1.9-2 0-1.1.6-2 1.4-2 .7 0 1.6.9 1.9 2m-290.7 2.6c-.5 1.2-.9 1.4-2 .5-.7-.6-1.6-.8-1.9-.4-.4.3-.7.3-.7-.1 0-.7 4.3-2.6 4.9-2 .2.2.1 1.1-.3 2m418.7-.6c.3 1.1.1 2-.4 2s-.9-.9-.9-2 .2-2 .4-2 .6.9.9 2m66.2 1c.2.4-.7.5-2 .2-1.4-.2-2.5-.8-2.5-1.2 0-1 3.8-.1 4.5 1m-517.7 10c-.7 1-1.6 1.6-2.2 1.3-.5-.4-.7.3-.4 1.5.5 1.9.2 2.1-2.2 1.8-2.1-.2-3 .2-3.3 1.6-.7 2.6-.5 3.3 1 3 2.1-.5 1.5 1.6-.7 2.3-1.2.4-2 1.5-2 2.8 0 2 0 2-1.6.1-1.5-1.8-1.5-1.7-1 1.3.4 2.2.1 3.3-.7 3.4-.6 0-2 .2-2.9.4-1.7.3-2.8-1.3-2.4-3.6 1.1-6.2 4-10.2 6.9-9.3 1.6.5 1.8.3.9-1.2-.8-1.5-.5-2.3 1.4-4.1 1.4-1.3 3.1-2.3 3.8-2.3.8 0 1.9-.7 2.6-1.5 1.9-2.3 4.4 0 2.8 2.5m339.2 7c1 .6.5.9-1.8.8-1.8-.1-3.5-.5-3.8-1-.7-1.1 3.7-1 5.6.2m-303 6.9c0 .5.3 1.6.6 2.5.4 1 .1 1.6-.9 1.6-1.9 0-2.7 2.2-2 5.1.4 1.5.3 2-.5 1.5s-1.2.5-1.2 3.3c0 2.3-.4 4.1-.9 4.1s-.8 1.2-.8 2.7-.6 2.9-1.2 3.1-.8.8-.5 1.3c.8 1.4-2.5 4.9-4.6 4.9-2.8 0-4.5-3.2-4.9-8.6-.2-4.4.1-5.4 1.9-6.7 1.5-1 2-2.1 1.6-3.5-.8-2.5.2-5.2 2-5.2.8 0 1.4-.4 1.4-.9s.9-.7 2-.4c1.2.3 2 0 2-.6 0-.7.4-1 .8-.7.5.3.9-.1.9-.9s-.4-1.5-.9-1.5-.6-.5-.3-1c.8-1.3 5.5-1.3 5.5-.1m394 1.1c0 .5-.4 1-1 1-.5 0-1-.5-1-1 0-.6.5-1 1-1 .6 0 1 .4 1 1m9 0c0 .5-.2 1-.4 1-.3 0-.8-.5-1.1-1-.3-.6-.1-1 .4-1 .6 0 1.1.4 1.1 1m-235.7 7.7c-.7.2-1.9.2-2.5 0-.7-.3-.2-.5 1.2-.5s1.9.2 1.3.5m-198.9 10.9c.8 2.2.8 5.4-.1 5.4-.5 0-.6 2.3-.4 5.1l.3 5.1 3.8-.6c3.4-.5 4.1-.3 6.6 2.7 1.5 1.7 2.5 2.4 2.1 1.4-.9-2.3-.1-3.8 1.6-3.1.8.3 1.3 2.4 1.2 5.7 0 2.8.3 6 .8 6.9.5 1.3.4 1.6-.7 1.2-1-.4-1.6.4-2.1 2.5-.3 1.7-1 3-1.3 3-.4-.1-1.6-.1-2.7 0-1.5.1-1.7.3-.7 1 1.1.6.7 1.5-1.7 4-1.7 1.7-3.1 2.7-3.1 2.1s-.5-.8-1-.5c-.6.4-.8 1-.5 1.4.2.5-1.3 1.1-3.5 1.5-2.6.4-4 1.2-4 2.1 0 .8-.6 1.4-1.2 1.2-.7-.1-1.2.4-1 1 .1.7-.8 1.3-1.9 1.3-1.2 0-3.7 1.6-5.6 3.5-3.4 3.5-5.3 4.4-5.3 2.4 0-.5-.5-.7-1.2-.3-.8.5-.9-.7-.5-4.6.4-3.3 1.3-5.7 2.2-6.2.8-.5 1.5-1.4 1.5-1.9 0-1.5 2.6-3.9 4.3-3.9.8 0 1.7-.9 2-2s1.1-2 1.9-1.9c1 0 1 .2.1.6-.7.2-1.3.9-1.3 1.4s1.1.4 2.4-.2c1.5-.7 2.2-1.7 1.9-2.5-.4-1 0-1.2 1.1-.8 1.9.7 2.2-1.2.4-2-.9-.3-.7-.9.6-2 2.9-2.4 5.6-6.8 5.6-9.4 0-1.8-.3-2.1-1.7-1.4-1 .6-2.9.6-5 0-2.4-.7-3.9-.6-4.9.3-1.1.9-1.4.8-1.4-.5 0-1-.4-1.5-1-1.1-.5.3-.8-.7-.7-2.5.2-2.4.6-2.9 2.2-2.5 1.1.3 1.4.2.8-.1-1.8-.8-1.6-2.7.2-2 1 .4 1.5-.1 1.5-1.4 0-1.1.5-2 1-2 .6 0 1-.9 1-2s.4-2 .9-2 .7-.9.4-2c-.6-2.3 1.5-2.7 3.6-.8 1 1.1 1.1 1 .6-.5-.4-.9-.3-1.7.3-1.7.5 0 1.3.7 1.6 1.6m485.3 4.6c-.3.8-.6.5-.6-.6-.1-1.1.2-1.7.5-1.3.3.3.4 1.2.1 1.9m41.3 3.8c.6 1.1 1.7 2 2.5 2s1.5.7 1.5 1.5c0 1.8-1.2 1.9-2.9.2-1-1-1.4-.8-2.2.6s-1.4 1.6-2.5.6c-2-1.7-1.7-3.4.9-4.8 1.2-.6 1.4-.9.5-.7-1 .3-1.8.1-1.8-.4 0-1.8 2.9-1 4 1m-37 0c0 .5-.4 1-1 1-.5 0-1-.5-1-1 0-.6.5-1 1-1 .6 0 1 .4 1 1m45 4.9c0 .5-.7 1.4-1.5 2.1-1.3 1-1.5.9-1.5-.9 0-1.2.6-2.1 1.5-2.1.8 0 1.5.4 1.5.9m8 11.1c0 .5-.7 1-1.6 1-.8 0-1.2-.5-.9-1 .3-.6 1-1 1.6-1 .5 0 .9.4.9 1m-484.5 5c.3.5-.1 1-.9 1-.9 0-1.6-.5-1.6-1 0-.6.4-1 .9-1 .6 0 1.3.4 1.6 1m14.9 7.4c-.8 2-4.5 2.4-7.4.8l-2.5-1.3 3.3.4c1.7.2 3.2 0 3.2-.5 0-.4.9-.8 2-.8 1.2 0 1.7.5 1.4 1.4m-130.4 46.5c0 1.7-1.8 2.1-2.4.6-.3-.9 0-1.5.9-1.5.8 0 1.5.4 1.5.9m4 .5c-.6.8-1.1 3.2-1 5.3.3 6.4 0 9.4-.8 8.9-.7-.4-.9 1.6-1.3 10.4 0 1.4-1.1 4.7-2.4 7.5-2.5 5.6-3.4 9.9-3.9 20-.6 11-1.7 18-2.8 18.4-.6.2-.5.6.2 1.1.9.5 1 1.6.3 3.5-.9 2.7.9 32.5 2.1 34.4.4.5 1 5.3 1.6 10.6.5 5.3 1.3 10.2 1.8 10.8.5.7 1 4.1 1.1 7.7.1 7.5.6 12.3 1.3 13.6.9 1.6.7 7.5-.3 6.9-1.8-1.2-.9 2.5 1.1 4.5 1.2 1.2 1.8 2.5 1.5 3-.3.4.1 1.5 1 2.3.9 1 1.4 3.2 1.2 6.7-.1 4.2.2 5.5 1.8 6.6 1.1.8 2.1 2 2.1 2.7.1.7.2 1.8.3 2.4 0 .7.8 1.3 1.7 1.3 1 0 1.4.6 1.1 1.4-.3.7.1 3.1.8 5.2.8 2.2 1.4 3.4 1.5 2.9 0-.6.6.1 1.4 1.5.7 1.4 1 2.8.6 3.3-1.1 1.3-5 1.7-5 .5 0-.6-.3-.8-.6-.5-2.3 2.2-17.6-12-17.9-16.5 0-.4-.9-1.3-1.9-2.1-1.3-.9-1.7-2.1-1.3-3.6.3-1.1.1-1.9-.4-1.5-.5.3-.9-.1-.9-.8 0-1.4 2-4.8 2-3.5 0 .5.4.5 1 .2.6-.4.4-1.8-.6-3.7-.9-1.8-1.2-3.3-.6-3.7 1.4-.9 3.5-10.8 2.6-12.3-.5-.7-1-2.4-1.2-3.8s-.7-2.9-1.3-3.5c-.5-.5-.9-1.7-.9-2.8 0-1-.7-2.5-1.5-3.3-.8-.9-1.5-2.6-1.5-3.9s-.3-3-.6-3.9c-.4-1.1 0-1.6 1.2-1.6 1.8-.1 1.8-.1.1-1.1-1.4-.8-1.7-1.8-1.3-3.5.4-1.4.3-3-.1-3.7s-.8-2.1-.9-3.2c0-1.1-.4-3.1-.8-4.4-.6-1.6-.5-2.1.3-1.7 1.5 1 1.3-.5-.3-2.7-1-1.3-1.5-1.5-1.8-.5-.3.7-.8-1-1.2-3.8-.7-5.6 0-8.8 1.7-7.7.6.3.7.1.3-.5-.4-.7-1.3-1.2-1.9-1.2-1.7 0-2.1-21.3-.6-24.2.8-1.6.8-1.9-.1-1.3-.9.5-1 .2-.6-1.3.4-1.2.9-4.5 1.2-7.4s.6-6.2.8-7.3.4-4.1.5-6.8c.1-3.6.5-4.7 1.7-4.7 1.4 0 1.5-.2.3-1.7-.8-.9-.9-1.4-.3-1 1.5.9 2.4-3.6 1.2-5.7-.8-1.5-.5-3.1 2-10.6.3-.8.4-2.7.3-4.3-.2-1.5.2-2.7.8-2.7s1.1-.6 1.1-1.3c0-.8 1.1-2 2.5-2.7s2.5-2 2.6-2.9c.1-2.1.6-4.2 1.4-6.4.4-1 .3-1.7-.5-1.7-.6 0-.8-.4-.5-1 .3-.5 1.9-.7 3.5-.3q3 .45 3-.6c0-1.4 2.2-4 3.4-4.1.5 0 .3.7-.4 1.4m25.7 13.8c-.3.7-.5.2-.5-1.2s.2-1.9.5-1.3c.2.7.2 1.9 0 2.5m-16.1 32.2c-.4 7-1.3 12.2-2.5 14.1-.3.5-.7 3.7-.8 7-1 24.4-1.6 29.5-3.3 29.5-1 0-.6-34.7.5-40 .2-1.4 1-4.8 1.6-7.5.6-2.8 1.2-6.4 1.4-8 .2-1.7.4-3.1.4-3.2.1-.1.8 0 1.6.3 1.2.5 1.4 2.1 1.1 7.8m8.4 77.6c0 .5-.5 1-1.1 1-.5 0-.7-.5-.4-1 .3-.6.8-1 1.1-1 .2 0 .4.4.4 1m-23.3 5.2c-.3.8-.6.5-.6-.6-.1-1.1.2-1.7.5-1.3.3.3.4 1.2.1 1.9m24.9 9.8c.3 3.6.7 8.1.9 10s.4 3.5.5 3.5.3 2.7.5 6 .8 7.8 1.4 10c.8 3.2.7 4.5-.6 6.4-1.1 1.8-1.3 2.6-.5 2.9.7.2 1.2 1.1 1.2 2 0 2.4-5.2-3-5.8-6-.9-5-.5-29.8.7-41.2.3-2.5 1.1.7 1.7 6.4m-36.6 27.5c0 1.4-.2 2.5-.4 2.5s-.6-1.1-.8-2.5c-.3-1.4-.1-2.5.3-2.5.5 0 .9 1.1.9 2.5m20.5 13.5c.3.5.1 1-.4 1-.6 0-1.1-.5-1.1-1 0-.6.2-1 .4-1 .3 0 .8.4 1.1 1m54.2 91.7c-.3 1-.5.4-.5-1.2 0-1.7.2-2.4.5-1.8.2.7.2 2.1 0 3m-44-.1c-.3.3-1.2.4-1.9.1-.8-.3-.5-.6.6-.6 1.1-.1 1.7.2 1.3.5m23.6 34.1c-.7.2-2.1.2-3 0-1-.3-.4-.5 1.2-.5 1.7 0 2.4.2 1.8.5m119.2 130.3c.3.5.2 1-.4 1-.5 0-1.3-.5-1.6-1-.3-.6-.2-1 .4-1 .5 0 1.3.4 1.6 1m12.5 6.1c0 .5-.4.9-1 .9-.5 0-1-.7-1-1.6 0-.8.5-1.2 1-.9.6.3 1 1 1 1.6m109.1 29.5c1.5 1.3 2.4 1.4 5 .5 1.8-.6 3.5-.9 3.7-.6.3.3 0 .5-.6.5s-.9.6-.6 1.4.1 1.7-.5 2.1c-.6.3-1.1 1.1-1.1 1.7 0 .7.4.7 1.3-.1.8-.6 1.7-.8 2-.4.4.3 1.3 0 2.2-.7 2-1.7 1.9-.6-.2 1.6-1.6 1.6-1.6 1.6.5 1 1.6-.6 2.2-.3 2.2.8 0 .9.9 1.6 2 1.6s2 .7 2 1.5.7 1.5 1.5 1.5c.9 0 1.8.6 2.1 1.4s1.2 1.2 2 .9c2.1-.8 1.7 1.5-.6 2.9-2.8 1.8-2.5 4.5.4 5 2.7.5 3.6-1.1 3.6-6.7 0-1.7.7-4.3 1.5-5.9.8-1.5 1.2-3.3.8-3.9-.3-.6-.1-.7.5-.3.8.5 1.2 0 1.2-1.3 0-1.2-.7-2.1-1.5-2.1s-1.5-.5-1.5-1.1c0-.8 1.5-.9 4.5-.5 3.3.5 4.5.4 4.5-.5 0-1 .3-1 1.2-.1 1 1 1 1.4 0 2.1-1.5.9-.5 9.1 1.1 9.1.7 0 .8.3.1 1-1.1 1.1-.6 8 .6 8 .8 0 2.2 7.8 2.5 13 0 1.4.4 3 .8 3.7.4.6.4 1.8.1 2.6-.3 1 .2 1.8 1.5 2.2 2.7.8 2.7 2.5.1 2.5-1.1 0-2 .4-2 1 0 .5.7 1 1.5 1 1.6 0 1.8 2.4 1.6 22.2 0 7.2.3 10.8 1 10.8.6 0 .9-.9.6-2s-.1-2 .5-2c.5 0 .6-.5.2-1.1s.1-.9 1.2-.8c1.1.2 2.5 0 3.2-.4.6-.5 1.8-.5 2.5 0 .6.4 2 .6 3 .5 1-.2 2.5.2 3.3.8 1 .9 1.4.9 1.4.1 0-.6 1.7-1.1 3.8-1.1 2 0 4.4-.4 5.2-1 .9-.6 1.7-.5 2.3.3.7.9 1 .9 1.4 0 .8-2.2 4.1.4 4.1 3.2 0 1.3-.4 2.2-.9 1.9s-.6.1-.4.9c.3.7-.3 2.1-1.4 3.1-2 1.9-1.9 4.2.1 3 .6-.4.8-.1.6.7-.3.8-1 1.3-1.6 1.2-.5-.1-1 1.4-.9 3.4.1 2.2-.4 3.8-1.2 4.1-1 .3-1.1.6-.1 1.2.9.5.4 1.7-1.6 4-1.6 1.8-2.8 3.6-2.7 4.1.2.5-.4.9-1.2.9-.9 0-3 .8-4.8 1.7s-3.5 1.6-3.8 1.6c-.3-.1-1.8.9-3.4 2.2-2 1.8-3.5 2.3-5.3 1.8-2.2-.5-2.4-.3-1.9 1.6.3 1.1.2 2.2-.1 2.2-.4.1-2.3.3-4.2.5-1.9.3-4.1.5-4.7.6-.7.1-1.3.4-1.3.7s-1.4.7-3.2.8c-1.7.1-3.6.8-4.1 1.5-.6 1-1 1-1.3.1-.6-1.3-14.1-.6-16 .8-1 .8-13.4.3-16.1-.6-.7-.2-1.5 0-1.8.6-1 1.5-13.6.9-14.2-.7-.3-.8-1.1-1.4-1.9-1.4s-1.4-.7-1.4-1.5-.6-1.5-1.2-1.6c-.7-.1-.2-.5 1.2-.9 1.7-.6 2-.8.7-.9-1-.1-2.7-1-3.9-2.1-3.9-3.6-8.8-2-6.6 2.2.7 1.4.4 1.8-1.2 1.8-2.9 0-3.5-.3-3.2-1.9.2-.8-.2-1.2-1.1-.8-.8.3-2.9-.3-4.6-1.4-1.7-1-3.9-1.9-4.7-1.9-.9 0-1.8-.9-2.1-2s-1.3-2-2.2-2c-1 0-2.8-1-4.1-2.3-1.3-1.2-3.3-2.7-4.5-3.2-1.1-.6-2.1-1.8-2.1-2.8-.2-1.2-.1-1.3.3-.2.4 1.3.6 1.3 1.9.1.8-.8 1.1-2.2.8-3-.7-1.9 1.2-2.2 2-.4.3.7.3.1 0-1.5-.5-2.1-.2-2.7 1-2.7 2.1 0 8.2-5.8 7.8-7.5-.3-1.7 2.7-1.3 3.8.4 1.1 1.9 3.3.3 2.7-2-.5-1.9 3.3-6.2 4-4.3.2.6 1.7.9 3.3.6 1.9-.3 2.7-.9 2.3-1.8-.3-.9.1-1.4 1.2-1.4s1.5-.5 1.2-1.4c-.6-1.5 1.9-3 3.4-2.1.4.3 1.1-.7 1.5-2.2.7-2.7 4.2-8 5-7.6 1.8 1.2 2.6-.1 2.1-3.3-.3-2-.2-4.3.3-5.2.5-1 1.2-3.4 1.5-5.5.5-2.9 1-3.7 2.1-3.3 1.2.5 1.5-.1 1.3-2.7-.2-1.9.4-4.3 1.4-5.7 2-2.9 2.2-4.6.5-5.3-1-.4-.9-.8.2-1.6 1.3-.9 1.2-1.2-.5-2.5-1.1-.9-2.4-1.6-2.8-1.6-.5 0-.6-.4-.2-.9.3-.5-.2-1.6-1-2.5-.9-.9-1.1-1.7-.5-2.1.5-.3 1-.1 1 .4 0 .6.5 1.1 1.2 1.1.6 0 .8-.3.5-.7-.4-.3-.2-1.2.4-1.9 1.2-1.4.3-3.8-1.1-2.9-.5.3-.8-.8-.8-2.4.1-1.7.4-2.9.9-2.8.4.1.7-.1.8-.6.3-2 0-2.8-.8-2.3-1 .7-.8-3.5.3-5.2.4-.7 1.7-.9 3.1-.6 1.2.3 2.6.1 2.9-.5 1-1.6 3.7-1.3 5.7.5m45.9 36.4c0 .5-.2 1-.4 1-.3 0-.8-.5-1.1-1-.3-.6-.1-1 .4-1 .6 0 1.1.4 1.1 1m-78.6 36.9c.3.5-.3 1.1-1.4 1.4-2.2.6-3.7-.8-1.8-1.6 2-.8 2.6-.8 3.2.2m-56.4 11.1c0 .5-.5 1-1.1 1-.5 0-.7-.5-.4-1 .3-.6.8-1 1.1-1 .2 0 .4.4.4 1m199 10.4c0 .2-.7.6-1.5 1-.8.3-1.5.1-1.5-.4 0-.6.7-1 1.5-1s1.5.2 1.5.4m-285 4c0 .3-.4.8-1 1.1-.5.3-1 .1-1-.4 0-.6.5-1.1 1-1.1.6 0 1 .2 1 .4m82 5.5c0 .5.3 1.7.6 2.5.5 1.2.2 1.5-1 1-.9-.3-1.3-1-1-1.5s0-.9-.5-.9c-.6 0-1.1-.5-1.1-1 0-.6.7-1 1.5-1s1.5.4 1.5.9m6.3 3.9c-.2 1.3.1 2.1.6 1.8.5-.4.7.4.3 1.6-.3 1.4-.2 1.9.6 1.4.7-.4 1.2-.1 1.2.8s-.2 1.6-.4 1.6c-1 0-5.3-4.9-6.4-7.3-1.2-2.8-1.1-2.8 1.5-2.5 2.3.2 2.8.8 2.6 2.6m211.2.3c-.7 1-3.5.1-3.5-1.1 0-.5.9-.6 2-.3s1.7.9 1.5 1.4m-29.5 1.4c0 1.4-.4 2.5-1 2.5-.5 0-.7.6-.5 1.2 1 3-5.7 8.1-14.8 11.3-3.3 1.2-4.7 2.2-4.3 3.1.4 1-.1 1.3-1.6 1-1.2-.1-2.5-1.1-2.9-2.2-.7-1.7-.8-1.7-.8-.2-.1 2.9-2.1 2.1-2.1-.8 0-1.9.4-2.5 1.5-2 .8.3 2.1-.2 3-1 .8-.9 2.3-1.4 3.3-1.2.9.2 2.5-.7 3.6-2 1.2-1.5 2.4-2.1 3.7-1.7 1.8.6 2.1.3 2.3-3.5.1-.8 1.3-2.1 2.9-2.8 1.5-.7 2.7-2 2.7-2.8s1-1.4 2.5-1.4c2 0 2.5.5 2.5 2.5m-313.4 5c1.4 1.3 1.3 1.6-1 2.5-1.4.5-3.4 1.8-4.5 2.9s-2.3 1.6-2.6 1.1c-.9-1.4.3-3 2.2-3 .9 0 1.3-.6.9-1.5-.3-.9 0-1.5.9-1.5.8 0 1.5-.5 1.5-1 0-1.4.9-1.2 2.6.5m144.6 5.5c.3 2.2.1 2.7-1.1 2.2-.9-.3-2.4-1.4-3.4-2.3-1.6-1.4-1.7-2-.6-3.8 1.2-1.8 1.5-1.9 3-.5.9.8 1.9 2.8 2.1 4.4m30.5 10.4c-.4 1 .2 1.6 1.6 1.8 1.5.2 2.2 1 2.3 2.5.1 1.3-.4 2.3-1 2.3-1.8 0-10.5-4.4-10.6-5.4 0-.4.6-.6 1.4-.3s1.7-.1 2-.9 1.5-1.4 2.7-1.4c1.4 0 1.9.5 1.6 1.4m217-.8c-.3.3-1.2.4-1.9.1-.8-.3-.5-.6.6-.6 1.1-.1 1.7.2 1.3.5m-265 4.6c-.3.8-.6.5-.6-.6-.1-1.1.2-1.7.5-1.3.3.3.4 1.2.1 1.9m142.3-1.8c0 .3-.4.8-1 1.1-.5.3-1 .1-1-.4 0-.6.5-1.1 1-1.1.6 0 1 .2 1 .4m-84.5 3.3c-1.7 1.2-1.7 1.3-.2 1.3.9 0 1.7.4 1.7 1 0 1.3-1 1.2-4-.5-1.4-.8-1.9-1.4-1.2-1.5.6 0 1.2-.6 1.2-1.4 0-1 .7-1.2 2.1-.9 2.1.6 2.1.7.4 2m78.3 0c-.2 1-1.2 1.9-2.3 2.2-1.1.2-2.5 1.1-3.2 2-1.1 1.4-1.4 1.4-2.3.1s-1-1.3-1 0c0 .8-.9 2.1-2.1 2.8-2.3 1.5-6.2.7-5.6-1.1.2-.7-.2-2.5-1-4.1l-1.5-2.8 4.4.4c2.4.3 5.2.8 6.3 1.2 1.5.6 1.6.5.6-.2-1.1-.8-.8-1.1 1.5-1.5 6-.9 6.6-.8 6.2 1m-47.7 3.6c1-.3 2.6.2 3.4 1.1.9.9 2.1 1.4 2.6 1 .5-.3 1.8-.2 2.9.1 1.5.5 1.8 1 1.1 2.3-.7 1.4-2.2 1.7-6.8 1.6-8.2-.2-8-.1-8.7-2.9-.8-3.3.1-4.8 2.1-3.6.9.4 2.4.6 3.4.4m-209.1 5.8c0 1.3-3.7 1.1-4.6-.3-.4-.6-.3-.8.4-.4.6.3 1.3.2 1.7-.4.7-1.2 2.5-.4 2.5 1.1m425-.1c0 .5-1.2 1-2.7.9l-2.8-.1 2.5-.8c1.4-.4 2.6-.8 2.8-.9.1-.1.2.3.2.9m-164 9c0 .5-.4 1-1 1-.5 0-1-.5-1-1 0-.6.5-1 1-1 .6 0 1 .4 1 1m-64 7c0 .5-.5 1-1.1 1-.5 0-.7-.5-.4-1 .3-.6.8-1 1.1-1 .2 0 .4.4.4 1m29.2 1.2c-.9.9-1.5.9-2.4 0s-.7-1.2 1.2-1.2 2.1.3 1.2 1.2m239.3 4.8c1 2 1.2 3 .4 3-.6 0-1.3-.9-1.6-2s-1.2-2-2-2-1.1-.5-.8-1c1.1-1.7 2.4-1.1 4 2m-516.8 12.7c-.2 1.6-.4.5-.4-2.2 0-2.8.2-4 .4-2.8.2 1.3.2 3.5 0 5m529.1 8.4c-.3.8-.7.3-1.1-1-.4-1.7-.3-2.1.5-1.3.5.5.8 1.6.6 2.3m-512.6 30.1c-.9.9-1.2.7-1.2-1.2s.3-2.1 1.2-1.2.9 1.5 0 2.4m91.2 56.5c-1 4-1.4 4.1-1.4.5 0-1.8.5-3.2 1-3.2.6 0 .8 1.1.4 2.7m444.3 21.5c-.3.8-.6.5-.6-.6-.1-1.1.2-1.7.5-1.3.3.3.4 1.2.1 1.9m-520.7 16c0 .5-.4.8-1 .8-.5 0-1-1-1-2.3 0-1.8.2-1.9 1-.7.5.8 1 1.8 1 2.2m433-1.2c0 .5-.4 1-.9 1-.6 0-1.3-.5-1.6-1-.3-.6.1-1 .9-1 .9 0 1.6.4 1.6 1m-423.5 1c.3.5 1.6 1 2.8 1 1.5 0 1.8.3 1 1.1-1.4 1.4-7.3.2-7.3-1.4 0-.7-.4-.6-1 .3s-1 1.1-1 .3c0-.7-.7-1-1.7-.6-1.1.4-1.4.3-.9-.5.9-1.5 7.2-1.6 8.1-.2m7.5 2.4c0 .3-.4.8-1 1.1-.5.3-1 .1-1-.4 0-.6.5-1.1 1-1.1.6 0 1 .2 1 .4m-39 10c0 .3-.4.8-1 1.1-.5.3-1 .1-1-.4 0-.6.5-1.1 1-1.1.6 0 1 .2 1 .4m25.5 4.6c-.3.5-1.3 1-2.1 1s-1.2-.5-.9-1c.3-.6 1.3-1 2.1-1s1.2.4.9 1m456.5 1c0 .5-.4 1-.9 1-.6 0-1.3-.5-1.6-1-.3-.6.1-1 .9-1 .9 0 1.6.4 1.6 1m5 0c0 .5-.4 1-.9 1-.6 0-1.3-.5-1.6-1-.3-.6.1-1 .9-1 .9 0 1.6.4 1.6 1m47 2.9c0 .6-.9.9-1.9.8-1.1 0-1.7-.5-1.5-.9.7-1.1 3.4-1 3.4.1m-476 4.1c0 .5-.2 1-.4 1-.3 0-.8-.5-1.1-1-.3-.6-.1-1 .4-1 .6 0 1.1.4 1.1 1"/><path d="M499.469 343.59c-12.849 9.748-6.16 27.486-7.9 41.11 1.013 24.672-3.648 49.579 1.438 74.064.278 10.884 8.441 28.41 18.185 12.49 12.101-5.2 18.989-15.891 20.235-29.626 4.038-14.622 5.58-31.619-1.692-45.534-7.133-6.804-3.425-23.02-7.155-33.993-1.619-10.818-10.08-26.289-23.111-18.512m275 1.301c-16.539 6.56-11.044 27.617-14.876 41.448-3.928 21.924-9.462 44.24-5.51 66.567-4.468 16.332 10.786 48.41 27.907 27.54 4.694-14.189 11.183-28.808 12.427-43.601-6.164-12.79-4.96-25.11-5.286-38.845-6.269-13.459-8.6-27.23-5.494-42 .015-5.262-3.144-11.374-9.168-11.11m-246.4 31.701c0 .5.5.7 1 .4.6-.3 1-.8 1-1.1 0-.2-.4-.4-1-.4-.5 0-1 .5-1 1.1m43 226.1c-6.278 6.21-3.514 16.22 1.65 22.168 7.291 8.371 16.798 15.088 27.718 17.724 10.46 2.901 21.454 3.411 31.636 7.372 10.264 3.511 21.128 5.675 31.988 4.278 17.255-1.054 33.31-8.174 48.698-15.486 8.79-3.267 19.269-6.495 23.845-15.429 4.128-7.277-4.326-12.526-10.793-10.101-7.704 2.256-14.27 7.159-21.287 10.899-13.003 7.916-28.283 14.531-43.814 11.535-29.847-2.77-56.303-18.106-82.31-31.765-2.208-1.546-4.712-1.886-7.331-1.196m14 25.8c.434 4.815-.323-4.045 0 0m23 11.5c1.112 4.057-1.835.794-.753-.818zm-8 .5c-4.301 1.277 1.048-4.32 0 0m12.5 0c-.084 3.545-.135-2.807 0 0"/></svg>